<?xml version="1.0" encoding="utf-8" standalone="no"?>
<!DOCTYPE svg PUBLIC "-//W3C//DTD SVG 1.1//EN"
  "http://www.w3.org/Graphics/SVG/1.1/DTD/svg11.dtd">
<svg xmlns:xlink="http://www.w3.org/1999/xlink" width="460.8pt" height="345.6pt" viewBox="0 0 460.8 345.6" xmlns="http://www.w3.org/2000/svg" version="1.1">
 <metadata>
  <rdf:RDF xmlns:dc="http://purl.org/dc/elements/1.1/" xmlns:cc="http://creativecommons.org/ns#" xmlns:rdf="http://www.w3.org/1999/02/22-rdf-syntax-ns#">
   <cc:Work>
    <dc:type rdf:resource="http://purl.org/dc/dcmitype/StillImage"/>
    <dc:date>2025-09-28T15:33:30.489761</dc:date>
    <dc:format>image/svg+xml</dc:format>
    <dc:creator>
     <cc:Agent>
      <dc:title>Matplotlib v3.6.3, https://matplotlib.org/</dc:title>
     </cc:Agent>
    </dc:creator>
   </cc:Work>
  </rdf:RDF>
 </metadata>
 <defs>
  <style type="text/css">*{stroke-linejoin: round; stroke-linecap: butt}</style>
 </defs>
 <g id="figure_1">
  <g id="patch_1">
   <path d="M 0 345.6 
L 460.8 345.6 
L 460.8 0 
L 0 0 
z
" style="fill: #ffffff"/>
  </g>
  <g id="axes_1">
   <g id="patch_2">
    <path d="M 65.60649 297.726322 
L 457.79976 297.726322 
L 457.79976 3.00024 
L 65.60649 3.00024 
z
" style="fill: #ffffff"/>
   </g>
   <g id="PolyCollection_1">
    <defs>
     <path id="m130064a9b1" d="M 83.433457 -61.270318 
L 83.433457 -61.270318 
L 83.790353 -61.309781 
L 84.147249 -61.34955 
L 84.504146 -61.389628 
L 84.861042 -61.430015 
L 85.217938 -61.470715 
L 85.574834 -61.51173 
L 85.93173 -61.553063 
L 86.288627 -61.594715 
L 86.645523 -61.636689 
L 87.002419 -61.678987 
L 87.359315 -61.721613 
L 87.716212 -61.764567 
L 88.073108 -61.807853 
L 88.430004 -61.851474 
L 88.7869 -61.89543 
L 89.143797 -61.939726 
L 89.500693 -61.984364 
L 89.857589 -62.029345 
L 90.214485 -62.074673 
L 90.571381 -62.120351 
L 90.928278 -62.16638 
L 91.285174 -62.212763 
L 91.64207 -62.259504 
L 91.998966 -62.306603 
L 92.355863 -62.354065 
L 92.712759 -62.401892 
L 93.069655 -62.450087 
L 93.426551 -62.498651 
L 93.783448 -62.547589 
L 94.140344 -62.596902 
L 94.49724 -62.646593 
L 94.854136 -62.696666 
L 95.211032 -62.747122 
L 95.567929 -62.797965 
L 95.924825 -62.849198 
L 96.281721 -62.900823 
L 96.638617 -62.952843 
L 96.995514 -63.005262 
L 97.35241 -63.058081 
L 97.709306 -63.111304 
L 98.066202 -63.164934 
L 98.423099 -63.218974 
L 98.779995 -63.273426 
L 99.136891 -63.328294 
L 99.493787 -63.383581 
L 99.850684 -63.439289 
L 100.20758 -63.495422 
L 100.564476 -63.551983 
L 100.921372 -63.608974 
L 101.278268 -63.6664 
L 101.635165 -63.724262 
L 101.992061 -63.782565 
L 102.348957 -63.841311 
L 102.705853 -63.900504 
L 103.06275 -63.960146 
L 103.419646 -64.020241 
L 103.776542 -64.080793 
L 104.133438 -64.141804 
L 104.490335 -64.203277 
L 104.847231 -64.265216 
L 105.204127 -64.327625 
L 105.561023 -64.390506 
L 105.917919 -64.453863 
L 106.274816 -64.517699 
L 106.631712 -64.582018 
L 106.988608 -64.646823 
L 107.345504 -64.712118 
L 107.702401 -64.777906 
L 108.059297 -64.84419 
L 108.416193 -64.910974 
L 108.773089 -64.978261 
L 109.129986 -65.046056 
L 109.486882 -65.11436 
L 109.843778 -65.183179 
L 110.200674 -65.252516 
L 110.55757 -65.322374 
L 110.914467 -65.392757 
L 111.271363 -65.463669 
L 111.628259 -65.535113 
L 111.985155 -65.607093 
L 112.342052 -65.679612 
L 112.698948 -65.752675 
L 113.055844 -65.826286 
L 113.41274 -65.900447 
L 113.769637 -65.975163 
L 114.126533 -66.050437 
L 114.483429 -66.126275 
L 114.840325 -66.202678 
L 115.197222 -66.279652 
L 115.554118 -66.3572 
L 115.911014 -66.435326 
L 116.26791 -66.514033 
L 116.624806 -66.593327 
L 116.981703 -66.673211 
L 117.338599 -66.753689 
L 117.695495 -66.834765 
L 118.052391 -66.916444 
L 118.409288 -66.998728 
L 118.766184 -67.081623 
L 119.12308 -67.165132 
L 119.479976 -67.24926 
L 119.836873 -67.33401 
L 120.193769 -67.419388 
L 120.550665 -67.505396 
L 120.907561 -67.59204 
L 121.264457 -67.679324 
L 121.621354 -67.767252 
L 121.97825 -67.855828 
L 122.335146 -67.945056 
L 122.692042 -68.034942 
L 123.048939 -68.125489 
L 123.405835 -68.216701 
L 123.762731 -68.308584 
L 124.119627 -68.401141 
L 124.476524 -68.494377 
L 124.83342 -68.588296 
L 125.190316 -68.682904 
L 125.547212 -68.778203 
L 125.904108 -68.8742 
L 126.261005 -68.970899 
L 126.617901 -69.068304 
L 126.974797 -69.166419 
L 127.331693 -69.26525 
L 127.68859 -69.364801 
L 128.045486 -69.465076 
L 128.402382 -69.566081 
L 128.759278 -69.66782 
L 129.116175 -69.770298 
L 129.473071 -69.87352 
L 129.829967 -69.97749 
L 130.186863 -70.082213 
L 130.54376 -70.187694 
L 130.900656 -70.293938 
L 131.257552 -70.40095 
L 131.614448 -70.508734 
L 131.971344 -70.617296 
L 132.328241 -70.72664 
L 132.685137 -70.836772 
L 133.042033 -70.947696 
L 133.398929 -71.059417 
L 133.755826 -71.171941 
L 134.112722 -71.285272 
L 134.469618 -71.399415 
L 134.826514 -71.514376 
L 135.183411 -71.630159 
L 135.540307 -71.74677 
L 135.897203 -71.864214 
L 136.254099 -71.982496 
L 136.610995 -72.101621 
L 136.967892 -72.221594 
L 137.324788 -72.342421 
L 137.681684 -72.464106 
L 138.03858 -72.586655 
L 138.395477 -72.710074 
L 138.752373 -72.834367 
L 139.109269 -72.95954 
L 139.466165 -73.085598 
L 139.823062 -73.212546 
L 140.179958 -73.34039 
L 140.536854 -73.469136 
L 140.89375 -73.598788 
L 141.250646 -73.729352 
L 141.607543 -73.860833 
L 141.964439 -73.993237 
L 142.321335 -74.12657 
L 142.678231 -74.260836 
L 143.035128 -74.396042 
L 143.392024 -74.532193 
L 143.74892 -74.669293 
L 144.105816 -74.80735 
L 144.462713 -74.946368 
L 144.819609 -75.086353 
L 145.176505 -75.227311 
L 145.533401 -75.369247 
L 145.890298 -75.512166 
L 146.247194 -75.656076 
L 146.60409 -75.80098 
L 146.960986 -75.946885 
L 147.317882 -76.093796 
L 147.674779 -76.24172 
L 148.031675 -76.390661 
L 148.388571 -76.540626 
L 148.745467 -76.69162 
L 149.102364 -76.843649 
L 149.45926 -76.996719 
L 149.816156 -77.150836 
L 150.173052 -77.306004 
L 150.529949 -77.462231 
L 150.886845 -77.619522 
L 151.243741 -77.777882 
L 151.600637 -77.937318 
L 151.957533 -78.097836 
L 152.31443 -78.25944 
L 152.671326 -78.422138 
L 153.028222 -78.585934 
L 153.385118 -78.750836 
L 153.742015 -78.916848 
L 154.098911 -79.083976 
L 154.455807 -79.252227 
L 154.812703 -79.421606 
L 155.1696 -79.592119 
L 155.526496 -79.763773 
L 155.883392 -79.936572 
L 156.240288 -80.110524 
L 156.597185 -80.285633 
L 156.954081 -80.461906 
L 157.310977 -80.639349 
L 157.667873 -80.817967 
L 158.024769 -80.997767 
L 158.381666 -81.178755 
L 158.738562 -81.360936 
L 159.095458 -81.544317 
L 159.452354 -81.728903 
L 159.809251 -81.9147 
L 160.166147 -82.101715 
L 160.523043 -82.289953 
L 160.879939 -82.47942 
L 161.236836 -82.670122 
L 161.593732 -82.862065 
L 161.950628 -83.055255 
L 162.307524 -83.249698 
L 162.66442 -83.4454 
L 163.021317 -83.642367 
L 163.378213 -83.840604 
L 163.735109 -84.040118 
L 164.092005 -84.240915 
L 164.448902 -84.443 
L 164.805798 -84.64638 
L 165.162694 -84.851059 
L 165.51959 -85.057045 
L 165.876487 -85.264343 
L 166.233383 -85.472959 
L 166.590279 -85.682898 
L 166.947175 -85.894167 
L 167.304071 -86.106772 
L 167.660968 -86.320717 
L 168.017864 -86.53601 
L 168.37476 -86.752655 
L 168.731656 -86.970659 
L 169.088553 -87.190028 
L 169.445449 -87.410766 
L 169.802345 -87.632881 
L 170.159241 -87.856377 
L 170.516138 -88.08126 
L 170.873034 -88.307536 
L 171.22993 -88.535211 
L 171.586826 -88.76429 
L 171.943723 -88.994779 
L 172.300619 -89.226683 
L 172.657515 -89.460008 
L 173.014411 -89.69476 
L 173.371307 -89.930944 
L 173.728204 -90.168565 
L 174.0851 -90.40763 
L 174.441996 -90.648143 
L 174.798892 -90.89011 
L 175.155789 -91.133537 
L 175.512685 -91.378428 
L 175.869581 -91.624789 
L 176.226477 -91.872625 
L 176.583374 -92.121943 
L 176.94027 -92.372746 
L 177.297166 -92.62504 
L 177.654062 -92.87883 
L 178.010958 -93.134122 
L 178.367855 -93.39092 
L 178.724751 -93.64923 
L 179.081647 -93.909056 
L 179.438543 -94.170405 
L 179.79544 -94.433279 
L 180.152336 -94.697685 
L 180.509232 -94.963627 
L 180.866128 -95.231111 
L 181.223025 -95.50014 
L 181.579921 -95.77072 
L 181.936817 -96.042856 
L 182.293713 -96.316551 
L 182.650609 -96.591811 
L 183.007506 -96.868641 
L 183.364402 -97.147044 
L 183.721298 -97.427025 
L 184.078194 -97.708588 
L 184.435091 -97.991739 
L 184.791987 -98.27648 
L 185.148883 -98.562817 
L 185.505779 -98.850754 
L 185.862676 -99.140294 
L 186.219572 -99.431443 
L 186.576468 -99.724203 
L 186.933364 -100.018579 
L 187.290261 -100.314574 
L 187.647157 -100.612193 
L 188.004053 -100.911439 
L 188.360949 -101.212317 
L 188.717845 -101.514829 
L 189.074742 -101.818979 
L 189.431638 -102.124771 
L 189.788534 -102.432208 
L 190.14543 -102.741294 
L 190.502327 -103.052031 
L 190.859223 -103.364424 
L 191.216119 -103.678475 
L 191.573015 -103.994187 
L 191.929912 -104.311564 
L 192.286808 -104.630608 
L 192.643704 -104.951322 
L 193.0006 -105.273709 
L 193.357496 -105.597772 
L 193.714393 -105.923513 
L 194.071289 -106.250934 
L 194.428185 -106.580039 
L 194.785081 -106.91083 
L 195.141978 -107.243309 
L 195.498874 -107.577478 
L 195.85577 -107.913339 
L 196.212666 -108.250895 
L 196.569563 -108.590146 
L 196.926459 -108.931096 
L 197.283355 -109.273746 
L 197.640251 -109.618098 
L 197.997147 -109.964152 
L 198.354044 -110.311912 
L 198.71094 -110.661377 
L 199.067836 -111.01255 
L 199.424732 -111.365431 
L 199.781629 -111.720022 
L 200.138525 -112.076324 
L 200.495421 -112.434337 
L 200.852317 -112.794062 
L 201.209214 -113.155501 
L 201.56611 -113.518653 
L 201.923006 -113.883519 
L 202.279902 -114.2501 
L 202.636799 -114.618396 
L 202.993695 -114.988407 
L 203.350591 -115.360132 
L 203.707487 -115.733573 
L 204.064383 -116.108728 
L 204.42128 -116.485598 
L 204.778176 -116.864183 
L 205.135072 -117.24448 
L 205.491968 -117.626491 
L 205.848865 -118.010214 
L 206.205761 -118.395649 
L 206.562657 -118.782794 
L 206.919553 -119.171649 
L 207.27645 -119.562211 
L 207.633346 -119.954481 
L 207.990242 -120.348456 
L 208.347138 -120.744135 
L 208.704034 -121.141516 
L 209.060931 -121.540598 
L 209.417827 -121.941378 
L 209.774723 -122.343854 
L 210.131619 -122.748024 
L 210.488516 -123.153887 
L 210.845412 -123.561438 
L 211.202308 -123.970677 
L 211.559204 -124.381599 
L 211.916101 -124.794203 
L 212.272997 -125.208485 
L 212.629893 -125.624442 
L 212.986789 -126.042072 
L 213.343685 -126.46137 
L 213.700582 -126.882332 
L 214.057478 -127.304957 
L 214.414374 -127.729239 
L 214.77127 -128.155174 
L 215.128167 -128.58276 
L 215.485063 -129.011991 
L 215.841959 -129.442863 
L 216.198855 -129.875372 
L 216.555752 -130.309512 
L 216.912648 -130.745281 
L 217.269544 -131.182671 
L 217.62644 -131.62168 
L 217.983337 -132.0623 
L 218.340233 -132.504528 
L 218.697129 -132.948357 
L 219.054025 -133.393782 
L 219.410921 -133.840797 
L 219.767818 -134.289397 
L 220.124714 -134.739574 
L 220.48161 -135.191324 
L 220.838506 -135.64464 
L 221.195403 -136.099515 
L 221.552299 -136.555943 
L 221.909195 -137.013917 
L 222.266091 -137.473431 
L 222.622988 -137.934476 
L 222.979884 -138.397046 
L 223.33678 -138.861134 
L 223.693676 -139.326732 
L 224.050572 -139.793832 
L 224.407469 -140.262427 
L 224.764365 -140.732509 
L 225.121261 -141.20407 
L 225.478157 -141.677102 
L 225.835054 -142.151595 
L 226.19195 -142.627542 
L 226.548846 -143.104935 
L 226.905742 -143.583764 
L 227.262639 -144.06402 
L 227.619535 -144.545694 
L 227.976431 -145.028777 
L 228.333327 -145.513261 
L 228.690223 -145.999134 
L 229.04712 -146.486388 
L 229.404016 -146.975013 
L 229.760912 -147.464998 
L 230.117808 -147.956334 
L 230.474705 -148.449011 
L 230.831601 -148.943018 
L 231.188497 -149.438344 
L 231.545393 -149.93498 
L 231.90229 -150.432913 
L 232.259186 -150.932134 
L 232.616082 -151.432631 
L 232.972978 -151.934393 
L 233.329875 -152.437409 
L 233.686771 -152.941667 
L 234.043667 -153.447155 
L 234.400563 -153.953862 
L 234.757459 -154.461776 
L 235.114356 -154.970885 
L 235.471252 -155.481176 
L 235.828148 -155.992638 
L 236.185044 -156.505258 
L 236.541941 -157.019023 
L 236.898837 -157.533921 
L 237.255733 -158.049939 
L 237.612629 -158.567064 
L 237.969526 -159.085282 
L 238.326422 -159.604582 
L 238.683318 -160.124949 
L 239.040214 -160.646369 
L 239.39711 -161.16883 
L 239.754007 -161.692318 
L 240.110903 -162.216819 
L 240.467799 -162.742319 
L 240.824695 -163.268803 
L 241.181592 -163.796259 
L 241.538488 -164.32467 
L 241.895384 -164.854024 
L 242.25228 -165.384306 
L 242.609177 -165.915501 
L 242.966073 -166.447593 
L 243.322969 -166.98057 
L 243.679865 -167.514415 
L 244.036761 -168.049113 
L 244.393658 -168.58465 
L 244.750554 -169.12101 
L 245.10745 -169.658178 
L 245.464346 -170.196138 
L 245.821243 -170.734875 
L 246.178139 -171.274373 
L 246.535035 -171.814616 
L 246.891931 -172.355589 
L 247.248828 -172.897276 
L 247.605724 -173.439661 
L 247.96262 -173.982728 
L 248.319516 -174.52646 
L 248.676413 -175.070841 
L 249.033309 -175.615855 
L 249.390205 -176.161486 
L 249.747101 -176.707717 
L 250.103997 -177.254532 
L 250.460894 -177.801913 
L 250.81779 -178.349845 
L 251.174686 -178.89831 
L 251.531582 -179.447292 
L 251.888479 -179.996773 
L 252.245375 -180.546738 
L 252.602271 -181.097168 
L 252.959167 -181.648046 
L 253.316064 -182.199356 
L 253.67296 -182.751081 
L 254.029856 -183.303203 
L 254.386752 -183.855704 
L 254.743648 -184.408568 
L 255.100545 -184.961777 
L 255.457441 -185.515314 
L 255.814337 -186.069161 
L 256.171233 -186.6233 
L 256.52813 -187.177715 
L 256.885026 -187.732387 
L 257.241922 -188.287299 
L 257.598818 -188.842434 
L 257.955715 -189.397773 
L 258.312611 -189.953299 
L 258.669507 -190.508994 
L 259.026403 -191.06484 
L 259.383299 -191.62082 
L 259.740196 -192.176916 
L 260.097092 -192.73311 
L 260.453988 -193.289384 
L 260.810884 -193.845721 
L 261.167781 -194.402102 
L 261.524677 -194.95851 
L 261.881573 -195.514927 
L 262.238469 -196.071335 
L 262.595366 -196.627717 
L 262.952262 -197.184053 
L 263.309158 -197.740327 
L 263.666054 -198.296521 
L 264.022951 -198.852617 
L 264.379847 -199.408597 
L 264.736743 -199.964444 
L 265.093639 -200.520139 
L 265.450535 -201.075665 
L 265.807432 -201.631004 
L 266.164328 -202.186138 
L 266.521224 -202.74105 
L 266.87812 -203.295722 
L 267.235017 -203.850137 
L 267.591913 -204.404277 
L 267.948809 -204.958124 
L 268.305705 -205.51166 
L 268.662602 -206.064869 
L 269.019498 -206.617733 
L 269.376394 -207.170235 
L 269.73329 -207.722356 
L 270.090186 -208.274081 
L 270.447083 -208.825391 
L 270.803979 -209.37627 
L 271.160875 -209.9267 
L 271.517771 -210.476664 
L 271.874668 -211.026146 
L 272.231564 -211.575128 
L 272.58846 -212.123593 
L 272.945356 -212.671524 
L 273.302253 -213.218906 
L 273.659149 -213.76572 
L 274.016045 -214.311951 
L 274.372941 -214.857582 
L 274.729837 -215.402596 
L 275.086734 -215.946978 
L 275.44363 -216.49071 
L 275.800526 -217.033776 
L 276.157422 -217.576161 
L 276.514319 -218.117848 
L 276.871215 -218.658821 
L 277.228111 -219.199065 
L 277.585007 -219.738563 
L 277.941904 -220.2773 
L 278.2988 -220.81526 
L 278.655696 -221.352428 
L 279.012592 -221.888788 
L 279.369489 -222.424324 
L 279.726385 -222.959023 
L 280.083281 -223.492868 
L 280.440177 -224.025844 
L 280.797073 -224.557937 
L 281.15397 -225.089132 
L 281.510866 -225.619413 
L 281.867762 -226.148767 
L 282.224658 -226.677179 
L 282.581555 -227.204634 
L 282.938451 -227.731119 
L 283.295347 -228.256619 
L 283.652243 -228.781119 
L 284.00914 -229.304607 
L 284.366036 -229.827068 
L 284.722932 -230.348489 
L 285.079828 -230.868856 
L 285.436724 -231.388155 
L 285.793621 -231.906374 
L 286.150517 -232.423499 
L 286.507413 -232.939516 
L 286.864309 -233.454414 
L 287.221206 -233.96818 
L 287.578102 -234.480799 
L 287.934998 -234.992261 
L 288.291894 -235.502553 
L 288.648791 -236.011661 
L 289.005687 -236.519575 
L 289.362583 -237.026282 
L 289.719479 -237.531771 
L 290.076375 -238.036029 
L 290.433272 -238.539044 
L 290.790168 -239.040806 
L 291.147064 -239.541303 
L 291.50396 -240.040524 
L 291.860857 -240.538458 
L 292.217753 -241.035093 
L 292.574649 -241.53042 
L 292.931545 -242.024427 
L 293.288442 -242.517103 
L 293.645338 -243.008439 
L 294.002234 -243.498425 
L 294.35913 -243.98705 
L 294.716027 -244.474304 
L 295.072923 -244.960177 
L 295.429819 -245.44466 
L 295.786715 -245.927744 
L 296.143611 -246.409418 
L 296.500508 -246.889674 
L 296.857404 -247.368503 
L 297.2143 -247.845895 
L 297.571196 -248.321842 
L 297.928093 -248.796336 
L 298.284989 -249.269367 
L 298.641885 -249.740928 
L 298.998781 -250.21101 
L 299.355678 -250.679605 
L 299.712574 -251.146706 
L 300.06947 -251.612304 
L 300.426366 -252.076391 
L 300.783262 -252.538962 
L 301.140159 -253.000007 
L 301.497055 -253.45952 
L 301.853951 -253.917494 
L 302.210847 -254.373922 
L 302.567744 -254.828797 
L 302.92464 -255.282113 
L 303.281536 -255.733863 
L 303.638432 -256.184041 
L 303.995329 -256.63264 
L 304.352225 -257.079656 
L 304.709121 -257.525081 
L 305.066017 -257.96891 
L 305.422913 -258.411137 
L 305.77981 -258.851758 
L 306.136706 -259.290766 
L 306.493602 -259.728157 
L 306.850498 -260.163925 
L 307.207395 -260.598066 
L 307.564291 -261.030575 
L 307.921187 -261.461447 
L 308.278083 -261.890678 
L 308.63498 -262.318263 
L 308.991876 -262.744199 
L 309.348772 -263.168481 
L 309.705668 -263.591105 
L 310.062565 -264.012068 
L 310.419461 -264.431366 
L 310.776357 -264.848995 
L 311.133253 -265.264952 
L 311.490149 -265.679234 
L 311.847046 -266.091838 
L 312.203942 -266.502761 
L 312.560838 -266.911999 
L 312.917734 -267.319551 
L 313.274631 -267.725413 
L 313.631527 -268.129584 
L 313.988423 -268.53206 
L 314.345319 -268.93284 
L 314.702216 -269.331921 
L 315.059112 -269.729302 
L 315.416008 -270.124981 
L 315.772904 -270.518956 
L 316.1298 -270.911226 
L 316.486697 -271.301789 
L 316.843593 -271.690643 
L 317.200489 -272.077788 
L 317.557385 -272.463223 
L 317.914282 -272.846946 
L 318.271178 -273.228957 
L 318.628074 -273.609255 
L 318.98497 -273.987839 
L 319.341867 -274.364709 
L 319.698763 -274.739865 
L 320.055659 -275.113305 
L 320.412555 -275.485031 
L 320.769451 -275.855042 
L 321.126348 -276.223337 
L 321.483244 -276.589918 
L 321.84014 -276.954784 
L 322.197036 -277.317937 
L 322.553933 -277.679375 
L 322.910829 -278.039101 
L 323.267725 -278.397114 
L 323.624621 -278.753415 
L 323.981518 -279.108006 
L 324.338414 -279.460888 
L 324.69531 -279.81206 
L 325.052206 -280.161526 
L 325.409103 -280.509285 
L 325.765999 -280.85534 
L 326.122895 -281.199691 
L 326.479791 -281.542341 
L 326.836687 -281.883291 
L 327.193584 -282.222543 
L 327.55048 -282.560098 
L 327.907376 -282.89596 
L 328.264272 -283.230129 
L 328.621169 -283.562607 
L 328.978065 -283.893398 
L 329.334961 -284.222503 
L 329.691857 -284.549925 
L 330.048754 -284.875666 
L 330.40565 -285.199729 
L 330.762546 -285.522116 
L 331.119442 -285.84283 
L 331.476338 -286.161874 
L 331.833235 -286.47925 
L 332.190131 -286.794963 
L 332.547027 -287.109013 
L 332.903923 -287.421406 
L 333.26082 -287.732144 
L 333.617716 -288.041229 
L 333.974612 -288.348667 
L 334.331508 -288.654458 
L 334.688405 -288.958609 
L 335.045301 -289.261121 
L 335.402197 -289.561998 
L 335.759093 -289.861244 
L 336.115989 -290.158863 
L 336.472886 -290.454859 
L 336.829782 -290.749235 
L 337.186678 -291.041995 
L 337.543574 -291.333143 
L 337.900471 -291.622683 
L 338.257367 -291.91062 
L 338.614263 -292.196957 
L 338.971159 -292.481699 
L 339.328056 -292.764849 
L 339.684952 -293.046413 
L 340.041848 -293.326394 
L 340.398744 -293.604797 
L 340.755641 -293.881626 
L 341.112537 -294.156886 
L 341.469433 -294.430582 
L 341.826329 -294.702717 
L 342.183225 -294.973297 
L 342.540122 -295.242327 
L 342.897018 -295.50981 
L 343.253914 -295.775752 
L 343.61081 -296.040158 
L 343.967707 -296.303033 
L 344.324603 -296.564381 
L 344.681499 -296.824207 
L 345.038395 -297.082517 
L 345.395292 -297.339316 
L 345.752188 -297.594607 
L 346.109084 -297.848398 
L 346.46598 -298.100692 
L 346.822876 -298.351495 
L 347.179773 -298.600812 
L 347.536669 -298.848649 
L 347.893565 -299.09501 
L 348.250461 -299.339901 
L 348.607358 -299.583327 
L 348.964254 -299.825294 
L 349.32115 -300.065808 
L 349.678046 -300.304872 
L 350.034943 -300.542494 
L 350.391839 -300.778678 
L 350.748735 -301.013429 
L 351.105631 -301.246755 
L 351.462527 -301.478659 
L 351.819424 -301.709148 
L 352.17632 -301.938227 
L 352.533216 -302.165901 
L 352.890112 -302.392178 
L 353.247009 -302.617061 
L 353.603905 -302.840557 
L 353.960801 -303.062671 
L 354.317697 -303.28341 
L 354.674594 -303.502778 
L 355.03149 -303.720782 
L 355.388386 -303.937428 
L 355.745282 -304.15272 
L 356.102179 -304.366666 
L 356.459075 -304.57927 
L 356.815971 -304.790539 
L 357.172867 -305.000479 
L 357.529763 -305.209095 
L 357.88666 -305.416392 
L 358.243556 -305.622378 
L 358.600452 -305.827058 
L 358.957348 -306.030437 
L 359.314245 -306.232523 
L 359.671141 -306.433319 
L 360.028037 -306.632833 
L 360.384933 -306.831071 
L 360.74183 -307.028037 
L 361.098726 -307.223739 
L 361.455622 -307.418183 
L 361.812518 -307.611373 
L 362.169414 -307.803316 
L 362.526311 -307.994018 
L 362.883207 -308.183485 
L 363.240103 -308.371723 
L 363.596999 -308.558737 
L 363.953896 -308.744535 
L 364.310792 -308.929121 
L 364.667688 -309.112501 
L 365.024584 -309.294682 
L 365.381481 -309.47567 
L 365.738377 -309.65547 
L 366.095273 -309.834089 
L 366.452169 -310.011531 
L 366.809065 -310.187805 
L 367.165962 -310.362914 
L 367.522858 -310.536865 
L 367.879754 -310.709665 
L 368.23665 -310.881318 
L 368.593547 -311.051832 
L 368.950443 -311.221211 
L 369.307339 -311.389462 
L 369.664235 -311.55659 
L 370.021132 -311.722602 
L 370.378028 -311.887503 
L 370.734924 -312.0513 
L 371.09182 -312.213997 
L 371.448717 -312.375602 
L 371.805613 -312.536119 
L 372.162509 -312.695555 
L 372.519405 -312.853916 
L 372.876301 -313.011206 
L 373.233198 -313.167433 
L 373.590094 -313.322602 
L 373.94699 -313.476718 
L 374.303886 -313.629788 
L 374.660783 -313.781818 
L 375.017679 -313.932812 
L 375.374575 -314.082777 
L 375.731471 -314.231718 
L 376.088368 -314.379641 
L 376.445264 -314.526553 
L 376.80216 -314.672458 
L 377.159056 -314.817362 
L 377.515952 -314.961271 
L 377.872849 -315.104191 
L 378.229745 -315.246127 
L 378.586641 -315.387084 
L 378.943537 -315.527069 
L 379.300434 -315.666087 
L 379.65733 -315.804144 
L 380.014226 -315.941245 
L 380.371122 -316.077395 
L 380.728019 -316.212601 
L 381.084915 -316.346867 
L 381.441811 -316.4802 
L 381.798707 -316.612604 
L 382.155604 -316.744086 
L 382.5125 -316.87465 
L 382.869396 -317.004302 
L 383.226292 -317.133047 
L 383.583188 -317.260891 
L 383.940085 -317.38784 
L 384.296981 -317.513898 
L 384.653877 -317.639071 
L 385.010773 -317.763364 
L 385.36767 -317.886782 
L 385.724566 -318.009332 
L 386.081462 -318.131017 
L 386.438358 -318.251844 
L 386.795255 -318.371817 
L 387.152151 -318.490942 
L 387.509047 -318.609223 
L 387.865943 -318.726667 
L 388.222839 -318.843278 
L 388.579736 -318.959062 
L 388.936632 -319.074022 
L 389.293528 -319.188166 
L 389.650424 -319.301497 
L 390.007321 -319.41402 
L 390.364217 -319.525741 
L 390.721113 -319.636665 
L 391.078009 -319.746797 
L 391.434906 -319.856141 
L 391.791802 -319.964703 
L 392.148698 -320.072487 
L 392.505594 -320.179499 
L 392.86249 -320.285743 
L 393.219387 -320.391224 
L 393.576283 -320.495948 
L 393.933179 -320.599918 
L 394.290075 -320.703139 
L 394.646972 -320.805617 
L 395.003868 -320.907356 
L 395.360764 -321.008361 
L 395.71766 -321.108637 
L 396.074557 -321.208188 
L 396.431453 -321.307019 
L 396.788349 -321.405134 
L 397.145245 -321.502539 
L 397.502142 -321.599237 
L 397.859038 -321.695234 
L 398.215934 -321.790534 
L 398.57283 -321.885141 
L 398.929726 -321.979061 
L 399.286623 -322.072297 
L 399.643519 -322.164854 
L 400.000415 -322.256736 
L 400.357311 -322.347949 
L 400.714208 -322.438496 
L 401.071104 -322.528381 
L 401.428 -322.61761 
L 401.784896 -322.706186 
L 402.141793 -322.794113 
L 402.498689 -322.881397 
L 402.855585 -322.968041 
L 403.212481 -323.05405 
L 403.569377 -323.139427 
L 403.926274 -323.224178 
L 404.28317 -323.308306 
L 404.640066 -323.391815 
L 404.996962 -323.47471 
L 405.353859 -323.556994 
L 405.710755 -323.638672 
L 406.067651 -323.719748 
L 406.424547 -323.800226 
L 406.781444 -323.88011 
L 407.13834 -323.959404 
L 407.495236 -324.038112 
L 407.852132 -324.116238 
L 408.209028 -324.193786 
L 408.565925 -324.270759 
L 408.922821 -324.347163 
L 409.279717 -324.423 
L 409.636613 -324.498275 
L 409.99351 -324.572991 
L 410.350406 -324.647152 
L 410.707302 -324.720762 
L 411.064198 -324.793825 
L 411.421095 -324.866345 
L 411.777991 -324.938325 
L 412.134887 -325.009769 
L 412.491783 -325.08068 
L 412.84868 -325.151063 
L 413.205576 -325.220921 
L 413.562472 -325.290258 
L 413.919368 -325.359077 
L 414.276264 -325.427382 
L 414.633161 -325.495176 
L 414.990057 -325.562464 
L 415.346953 -325.629248 
L 415.703849 -325.695532 
L 416.060746 -325.761319 
L 416.417642 -325.826614 
L 416.774538 -325.891419 
L 417.131434 -325.955738 
L 417.488331 -326.019575 
L 417.845227 -326.082932 
L 418.202123 -326.145813 
L 418.559019 -326.208221 
L 418.915915 -326.270161 
L 419.272812 -326.331634 
L 419.629708 -326.392645 
L 419.986604 -326.453196 
L 420.3435 -326.513291 
L 420.700397 -326.572934 
L 421.057293 -326.632126 
L 421.414189 -326.690872 
L 421.771085 -326.749175 
L 422.127982 -326.807038 
L 422.484878 -326.864463 
L 422.841774 -326.921455 
L 423.19867 -326.978016 
L 423.555566 -327.034149 
L 423.912463 -327.089857 
L 424.269359 -327.145144 
L 424.626255 -327.200012 
L 424.983151 -327.254464 
L 425.340048 -327.308503 
L 425.696944 -327.362133 
L 426.05384 -327.415356 
L 426.410736 -327.468176 
L 426.767633 -327.520594 
L 427.124529 -327.572614 
L 427.481425 -327.624239 
L 427.838321 -327.675472 
L 428.195218 -327.726315 
L 428.552114 -327.776772 
L 428.90901 -327.826844 
L 429.265906 -327.876536 
L 429.622802 -327.925849 
L 429.979699 -327.974786 
L 430.336595 -328.023351 
L 430.693491 -328.071545 
L 431.050387 -328.119372 
L 431.407284 -328.166834 
L 431.76418 -328.213934 
L 432.121076 -328.260674 
L 432.477972 -328.307058 
L 432.834869 -328.353087 
L 433.191765 -328.398764 
L 433.548661 -328.444092 
L 433.905557 -328.489074 
L 434.262453 -328.533711 
L 434.61935 -328.578007 
L 434.976246 -328.621964 
L 435.333142 -328.665584 
L 435.690038 -328.70887 
L 436.046935 -328.751825 
L 436.403831 -328.79445 
L 436.760727 -328.836748 
L 437.117623 -328.878723 
L 437.47452 -328.920375 
L 437.831416 -328.961707 
L 438.188312 -329.002722 
L 438.545208 -329.043422 
L 438.902104 -329.08381 
L 439.259001 -329.123887 
L 439.615897 -329.163656 
L 439.972793 -329.20312 
L 439.972793 -61.270318 
L 439.972793 -61.270318 
L 439.615897 -61.270318 
L 439.259001 -61.270318 
L 438.902104 -61.270318 
L 438.545208 -61.270318 
L 438.188312 -61.270318 
L 437.831416 -61.270318 
L 437.47452 -61.270318 
L 437.117623 -61.270318 
L 436.760727 -61.270318 
L 436.403831 -61.270318 
L 436.046935 -61.270318 
L 435.690038 -61.270318 
L 435.333142 -61.270318 
L 434.976246 -61.270318 
L 434.61935 -61.270318 
L 434.262453 -61.270318 
L 433.905557 -61.270318 
L 433.548661 -61.270318 
L 433.191765 -61.270318 
L 432.834869 -61.270318 
L 432.477972 -61.270318 
L 432.121076 -61.270318 
L 431.76418 -61.270318 
L 431.407284 -61.270318 
L 431.050387 -61.270318 
L 430.693491 -61.270318 
L 430.336595 -61.270318 
L 429.979699 -61.270318 
L 429.622802 -61.270318 
L 429.265906 -61.270318 
L 428.90901 -61.270318 
L 428.552114 -61.270318 
L 428.195218 -61.270318 
L 427.838321 -61.270318 
L 427.481425 -61.270318 
L 427.124529 -61.270318 
L 426.767633 -61.270318 
L 426.410736 -61.270318 
L 426.05384 -61.270318 
L 425.696944 -61.270318 
L 425.340048 -61.270318 
L 424.983151 -61.270318 
L 424.626255 -61.270318 
L 424.269359 -61.270318 
L 423.912463 -61.270318 
L 423.555566 -61.270318 
L 423.19867 -61.270318 
L 422.841774 -61.270318 
L 422.484878 -61.270318 
L 422.127982 -61.270318 
L 421.771085 -61.270318 
L 421.414189 -61.270318 
L 421.057293 -61.270318 
L 420.700397 -61.270318 
L 420.3435 -61.270318 
L 419.986604 -61.270318 
L 419.629708 -61.270318 
L 419.272812 -61.270318 
L 418.915915 -61.270318 
L 418.559019 -61.270318 
L 418.202123 -61.270318 
L 417.845227 -61.270318 
L 417.488331 -61.270318 
L 417.131434 -61.270318 
L 416.774538 -61.270318 
L 416.417642 -61.270318 
L 416.060746 -61.270318 
L 415.703849 -61.270318 
L 415.346953 -61.270318 
L 414.990057 -61.270318 
L 414.633161 -61.270318 
L 414.276264 -61.270318 
L 413.919368 -61.270318 
L 413.562472 -61.270318 
L 413.205576 -61.270318 
L 412.84868 -61.270318 
L 412.491783 -61.270318 
L 412.134887 -61.270318 
L 411.777991 -61.270318 
L 411.421095 -61.270318 
L 411.064198 -61.270318 
L 410.707302 -61.270318 
L 410.350406 -61.270318 
L 409.99351 -61.270318 
L 409.636613 -61.270318 
L 409.279717 -61.270318 
L 408.922821 -61.270318 
L 408.565925 -61.270318 
L 408.209028 -61.270318 
L 407.852132 -61.270318 
L 407.495236 -61.270318 
L 407.13834 -61.270318 
L 406.781444 -61.270318 
L 406.424547 -61.270318 
L 406.067651 -61.270318 
L 405.710755 -61.270318 
L 405.353859 -61.270318 
L 404.996962 -61.270318 
L 404.640066 -61.270318 
L 404.28317 -61.270318 
L 403.926274 -61.270318 
L 403.569377 -61.270318 
L 403.212481 -61.270318 
L 402.855585 -61.270318 
L 402.498689 -61.270318 
L 402.141793 -61.270318 
L 401.784896 -61.270318 
L 401.428 -61.270318 
L 401.071104 -61.270318 
L 400.714208 -61.270318 
L 400.357311 -61.270318 
L 400.000415 -61.270318 
L 399.643519 -61.270318 
L 399.286623 -61.270318 
L 398.929726 -61.270318 
L 398.57283 -61.270318 
L 398.215934 -61.270318 
L 397.859038 -61.270318 
L 397.502142 -61.270318 
L 397.145245 -61.270318 
L 396.788349 -61.270318 
L 396.431453 -61.270318 
L 396.074557 -61.270318 
L 395.71766 -61.270318 
L 395.360764 -61.270318 
L 395.003868 -61.270318 
L 394.646972 -61.270318 
L 394.290075 -61.270318 
L 393.933179 -61.270318 
L 393.576283 -61.270318 
L 393.219387 -61.270318 
L 392.86249 -61.270318 
L 392.505594 -61.270318 
L 392.148698 -61.270318 
L 391.791802 -61.270318 
L 391.434906 -61.270318 
L 391.078009 -61.270318 
L 390.721113 -61.270318 
L 390.364217 -61.270318 
L 390.007321 -61.270318 
L 389.650424 -61.270318 
L 389.293528 -61.270318 
L 388.936632 -61.270318 
L 388.579736 -61.270318 
L 388.222839 -61.270318 
L 387.865943 -61.270318 
L 387.509047 -61.270318 
L 387.152151 -61.270318 
L 386.795255 -61.270318 
L 386.438358 -61.270318 
L 386.081462 -61.270318 
L 385.724566 -61.270318 
L 385.36767 -61.270318 
L 385.010773 -61.270318 
L 384.653877 -61.270318 
L 384.296981 -61.270318 
L 383.940085 -61.270318 
L 383.583188 -61.270318 
L 383.226292 -61.270318 
L 382.869396 -61.270318 
L 382.5125 -61.270318 
L 382.155604 -61.270318 
L 381.798707 -61.270318 
L 381.441811 -61.270318 
L 381.084915 -61.270318 
L 380.728019 -61.270318 
L 380.371122 -61.270318 
L 380.014226 -61.270318 
L 379.65733 -61.270318 
L 379.300434 -61.270318 
L 378.943537 -61.270318 
L 378.586641 -61.270318 
L 378.229745 -61.270318 
L 377.872849 -61.270318 
L 377.515952 -61.270318 
L 377.159056 -61.270318 
L 376.80216 -61.270318 
L 376.445264 -61.270318 
L 376.088368 -61.270318 
L 375.731471 -61.270318 
L 375.374575 -61.270318 
L 375.017679 -61.270318 
L 374.660783 -61.270318 
L 374.303886 -61.270318 
L 373.94699 -61.270318 
L 373.590094 -61.270318 
L 373.233198 -61.270318 
L 372.876301 -61.270318 
L 372.519405 -61.270318 
L 372.162509 -61.270318 
L 371.805613 -61.270318 
L 371.448717 -61.270318 
L 371.09182 -61.270318 
L 370.734924 -61.270318 
L 370.378028 -61.270318 
L 370.021132 -61.270318 
L 369.664235 -61.270318 
L 369.307339 -61.270318 
L 368.950443 -61.270318 
L 368.593547 -61.270318 
L 368.23665 -61.270318 
L 367.879754 -61.270318 
L 367.522858 -61.270318 
L 367.165962 -61.270318 
L 366.809065 -61.270318 
L 366.452169 -61.270318 
L 366.095273 -61.270318 
L 365.738377 -61.270318 
L 365.381481 -61.270318 
L 365.024584 -61.270318 
L 364.667688 -61.270318 
L 364.310792 -61.270318 
L 363.953896 -61.270318 
L 363.596999 -61.270318 
L 363.240103 -61.270318 
L 362.883207 -61.270318 
L 362.526311 -61.270318 
L 362.169414 -61.270318 
L 361.812518 -61.270318 
L 361.455622 -61.270318 
L 361.098726 -61.270318 
L 360.74183 -61.270318 
L 360.384933 -61.270318 
L 360.028037 -61.270318 
L 359.671141 -61.270318 
L 359.314245 -61.270318 
L 358.957348 -61.270318 
L 358.600452 -61.270318 
L 358.243556 -61.270318 
L 357.88666 -61.270318 
L 357.529763 -61.270318 
L 357.172867 -61.270318 
L 356.815971 -61.270318 
L 356.459075 -61.270318 
L 356.102179 -61.270318 
L 355.745282 -61.270318 
L 355.388386 -61.270318 
L 355.03149 -61.270318 
L 354.674594 -61.270318 
L 354.317697 -61.270318 
L 353.960801 -61.270318 
L 353.603905 -61.270318 
L 353.247009 -61.270318 
L 352.890112 -61.270318 
L 352.533216 -61.270318 
L 352.17632 -61.270318 
L 351.819424 -61.270318 
L 351.462527 -61.270318 
L 351.105631 -61.270318 
L 350.748735 -61.270318 
L 350.391839 -61.270318 
L 350.034943 -61.270318 
L 349.678046 -61.270318 
L 349.32115 -61.270318 
L 348.964254 -61.270318 
L 348.607358 -61.270318 
L 348.250461 -61.270318 
L 347.893565 -61.270318 
L 347.536669 -61.270318 
L 347.179773 -61.270318 
L 346.822876 -61.270318 
L 346.46598 -61.270318 
L 346.109084 -61.270318 
L 345.752188 -61.270318 
L 345.395292 -61.270318 
L 345.038395 -61.270318 
L 344.681499 -61.270318 
L 344.324603 -61.270318 
L 343.967707 -61.270318 
L 343.61081 -61.270318 
L 343.253914 -61.270318 
L 342.897018 -61.270318 
L 342.540122 -61.270318 
L 342.183225 -61.270318 
L 341.826329 -61.270318 
L 341.469433 -61.270318 
L 341.112537 -61.270318 
L 340.755641 -61.270318 
L 340.398744 -61.270318 
L 340.041848 -61.270318 
L 339.684952 -61.270318 
L 339.328056 -61.270318 
L 338.971159 -61.270318 
L 338.614263 -61.270318 
L 338.257367 -61.270318 
L 337.900471 -61.270318 
L 337.543574 -61.270318 
L 337.186678 -61.270318 
L 336.829782 -61.270318 
L 336.472886 -61.270318 
L 336.115989 -61.270318 
L 335.759093 -61.270318 
L 335.402197 -61.270318 
L 335.045301 -61.270318 
L 334.688405 -61.270318 
L 334.331508 -61.270318 
L 333.974612 -61.270318 
L 333.617716 -61.270318 
L 333.26082 -61.270318 
L 332.903923 -61.270318 
L 332.547027 -61.270318 
L 332.190131 -61.270318 
L 331.833235 -61.270318 
L 331.476338 -61.270318 
L 331.119442 -61.270318 
L 330.762546 -61.270318 
L 330.40565 -61.270318 
L 330.048754 -61.270318 
L 329.691857 -61.270318 
L 329.334961 -61.270318 
L 328.978065 -61.270318 
L 328.621169 -61.270318 
L 328.264272 -61.270318 
L 327.907376 -61.270318 
L 327.55048 -61.270318 
L 327.193584 -61.270318 
L 326.836687 -61.270318 
L 326.479791 -61.270318 
L 326.122895 -61.270318 
L 325.765999 -61.270318 
L 325.409103 -61.270318 
L 325.052206 -61.270318 
L 324.69531 -61.270318 
L 324.338414 -61.270318 
L 323.981518 -61.270318 
L 323.624621 -61.270318 
L 323.267725 -61.270318 
L 322.910829 -61.270318 
L 322.553933 -61.270318 
L 322.197036 -61.270318 
L 321.84014 -61.270318 
L 321.483244 -61.270318 
L 321.126348 -61.270318 
L 320.769451 -61.270318 
L 320.412555 -61.270318 
L 320.055659 -61.270318 
L 319.698763 -61.270318 
L 319.341867 -61.270318 
L 318.98497 -61.270318 
L 318.628074 -61.270318 
L 318.271178 -61.270318 
L 317.914282 -61.270318 
L 317.557385 -61.270318 
L 317.200489 -61.270318 
L 316.843593 -61.270318 
L 316.486697 -61.270318 
L 316.1298 -61.270318 
L 315.772904 -61.270318 
L 315.416008 -61.270318 
L 315.059112 -61.270318 
L 314.702216 -61.270318 
L 314.345319 -61.270318 
L 313.988423 -61.270318 
L 313.631527 -61.270318 
L 313.274631 -61.270318 
L 312.917734 -61.270318 
L 312.560838 -61.270318 
L 312.203942 -61.270318 
L 311.847046 -61.270318 
L 311.490149 -61.270318 
L 311.133253 -61.270318 
L 310.776357 -61.270318 
L 310.419461 -61.270318 
L 310.062565 -61.270318 
L 309.705668 -61.270318 
L 309.348772 -61.270318 
L 308.991876 -61.270318 
L 308.63498 -61.270318 
L 308.278083 -61.270318 
L 307.921187 -61.270318 
L 307.564291 -61.270318 
L 307.207395 -61.270318 
L 306.850498 -61.270318 
L 306.493602 -61.270318 
L 306.136706 -61.270318 
L 305.77981 -61.270318 
L 305.422913 -61.270318 
L 305.066017 -61.270318 
L 304.709121 -61.270318 
L 304.352225 -61.270318 
L 303.995329 -61.270318 
L 303.638432 -61.270318 
L 303.281536 -61.270318 
L 302.92464 -61.270318 
L 302.567744 -61.270318 
L 302.210847 -61.270318 
L 301.853951 -61.270318 
L 301.497055 -61.270318 
L 301.140159 -61.270318 
L 300.783262 -61.270318 
L 300.426366 -61.270318 
L 300.06947 -61.270318 
L 299.712574 -61.270318 
L 299.355678 -61.270318 
L 298.998781 -61.270318 
L 298.641885 -61.270318 
L 298.284989 -61.270318 
L 297.928093 -61.270318 
L 297.571196 -61.270318 
L 297.2143 -61.270318 
L 296.857404 -61.270318 
L 296.500508 -61.270318 
L 296.143611 -61.270318 
L 295.786715 -61.270318 
L 295.429819 -61.270318 
L 295.072923 -61.270318 
L 294.716027 -61.270318 
L 294.35913 -61.270318 
L 294.002234 -61.270318 
L 293.645338 -61.270318 
L 293.288442 -61.270318 
L 292.931545 -61.270318 
L 292.574649 -61.270318 
L 292.217753 -61.270318 
L 291.860857 -61.270318 
L 291.50396 -61.270318 
L 291.147064 -61.270318 
L 290.790168 -61.270318 
L 290.433272 -61.270318 
L 290.076375 -61.270318 
L 289.719479 -61.270318 
L 289.362583 -61.270318 
L 289.005687 -61.270318 
L 288.648791 -61.270318 
L 288.291894 -61.270318 
L 287.934998 -61.270318 
L 287.578102 -61.270318 
L 287.221206 -61.270318 
L 286.864309 -61.270318 
L 286.507413 -61.270318 
L 286.150517 -61.270318 
L 285.793621 -61.270318 
L 285.436724 -61.270318 
L 285.079828 -61.270318 
L 284.722932 -61.270318 
L 284.366036 -61.270318 
L 284.00914 -61.270318 
L 283.652243 -61.270318 
L 283.295347 -61.270318 
L 282.938451 -61.270318 
L 282.581555 -61.270318 
L 282.224658 -61.270318 
L 281.867762 -61.270318 
L 281.510866 -61.270318 
L 281.15397 -61.270318 
L 280.797073 -61.270318 
L 280.440177 -61.270318 
L 280.083281 -61.270318 
L 279.726385 -61.270318 
L 279.369489 -61.270318 
L 279.012592 -61.270318 
L 278.655696 -61.270318 
L 278.2988 -61.270318 
L 277.941904 -61.270318 
L 277.585007 -61.270318 
L 277.228111 -61.270318 
L 276.871215 -61.270318 
L 276.514319 -61.270318 
L 276.157422 -61.270318 
L 275.800526 -61.270318 
L 275.44363 -61.270318 
L 275.086734 -61.270318 
L 274.729837 -61.270318 
L 274.372941 -61.270318 
L 274.016045 -61.270318 
L 273.659149 -61.270318 
L 273.302253 -61.270318 
L 272.945356 -61.270318 
L 272.58846 -61.270318 
L 272.231564 -61.270318 
L 271.874668 -61.270318 
L 271.517771 -61.270318 
L 271.160875 -61.270318 
L 270.803979 -61.270318 
L 270.447083 -61.270318 
L 270.090186 -61.270318 
L 269.73329 -61.270318 
L 269.376394 -61.270318 
L 269.019498 -61.270318 
L 268.662602 -61.270318 
L 268.305705 -61.270318 
L 267.948809 -61.270318 
L 267.591913 -61.270318 
L 267.235017 -61.270318 
L 266.87812 -61.270318 
L 266.521224 -61.270318 
L 266.164328 -61.270318 
L 265.807432 -61.270318 
L 265.450535 -61.270318 
L 265.093639 -61.270318 
L 264.736743 -61.270318 
L 264.379847 -61.270318 
L 264.022951 -61.270318 
L 263.666054 -61.270318 
L 263.309158 -61.270318 
L 262.952262 -61.270318 
L 262.595366 -61.270318 
L 262.238469 -61.270318 
L 261.881573 -61.270318 
L 261.524677 -61.270318 
L 261.167781 -61.270318 
L 260.810884 -61.270318 
L 260.453988 -61.270318 
L 260.097092 -61.270318 
L 259.740196 -61.270318 
L 259.383299 -61.270318 
L 259.026403 -61.270318 
L 258.669507 -61.270318 
L 258.312611 -61.270318 
L 257.955715 -61.270318 
L 257.598818 -61.270318 
L 257.241922 -61.270318 
L 256.885026 -61.270318 
L 256.52813 -61.270318 
L 256.171233 -61.270318 
L 255.814337 -61.270318 
L 255.457441 -61.270318 
L 255.100545 -61.270318 
L 254.743648 -61.270318 
L 254.386752 -61.270318 
L 254.029856 -61.270318 
L 253.67296 -61.270318 
L 253.316064 -61.270318 
L 252.959167 -61.270318 
L 252.602271 -61.270318 
L 252.245375 -61.270318 
L 251.888479 -61.270318 
L 251.531582 -61.270318 
L 251.174686 -61.270318 
L 250.81779 -61.270318 
L 250.460894 -61.270318 
L 250.103997 -61.270318 
L 249.747101 -61.270318 
L 249.390205 -61.270318 
L 249.033309 -61.270318 
L 248.676413 -61.270318 
L 248.319516 -61.270318 
L 247.96262 -61.270318 
L 247.605724 -61.270318 
L 247.248828 -61.270318 
L 246.891931 -61.270318 
L 246.535035 -61.270318 
L 246.178139 -61.270318 
L 245.821243 -61.270318 
L 245.464346 -61.270318 
L 245.10745 -61.270318 
L 244.750554 -61.270318 
L 244.393658 -61.270318 
L 244.036761 -61.270318 
L 243.679865 -61.270318 
L 243.322969 -61.270318 
L 242.966073 -61.270318 
L 242.609177 -61.270318 
L 242.25228 -61.270318 
L 241.895384 -61.270318 
L 241.538488 -61.270318 
L 241.181592 -61.270318 
L 240.824695 -61.270318 
L 240.467799 -61.270318 
L 240.110903 -61.270318 
L 239.754007 -61.270318 
L 239.39711 -61.270318 
L 239.040214 -61.270318 
L 238.683318 -61.270318 
L 238.326422 -61.270318 
L 237.969526 -61.270318 
L 237.612629 -61.270318 
L 237.255733 -61.270318 
L 236.898837 -61.270318 
L 236.541941 -61.270318 
L 236.185044 -61.270318 
L 235.828148 -61.270318 
L 235.471252 -61.270318 
L 235.114356 -61.270318 
L 234.757459 -61.270318 
L 234.400563 -61.270318 
L 234.043667 -61.270318 
L 233.686771 -61.270318 
L 233.329875 -61.270318 
L 232.972978 -61.270318 
L 232.616082 -61.270318 
L 232.259186 -61.270318 
L 231.90229 -61.270318 
L 231.545393 -61.270318 
L 231.188497 -61.270318 
L 230.831601 -61.270318 
L 230.474705 -61.270318 
L 230.117808 -61.270318 
L 229.760912 -61.270318 
L 229.404016 -61.270318 
L 229.04712 -61.270318 
L 228.690223 -61.270318 
L 228.333327 -61.270318 
L 227.976431 -61.270318 
L 227.619535 -61.270318 
L 227.262639 -61.270318 
L 226.905742 -61.270318 
L 226.548846 -61.270318 
L 226.19195 -61.270318 
L 225.835054 -61.270318 
L 225.478157 -61.270318 
L 225.121261 -61.270318 
L 224.764365 -61.270318 
L 224.407469 -61.270318 
L 224.050572 -61.270318 
L 223.693676 -61.270318 
L 223.33678 -61.270318 
L 222.979884 -61.270318 
L 222.622988 -61.270318 
L 222.266091 -61.270318 
L 221.909195 -61.270318 
L 221.552299 -61.270318 
L 221.195403 -61.270318 
L 220.838506 -61.270318 
L 220.48161 -61.270318 
L 220.124714 -61.270318 
L 219.767818 -61.270318 
L 219.410921 -61.270318 
L 219.054025 -61.270318 
L 218.697129 -61.270318 
L 218.340233 -61.270318 
L 217.983337 -61.270318 
L 217.62644 -61.270318 
L 217.269544 -61.270318 
L 216.912648 -61.270318 
L 216.555752 -61.270318 
L 216.198855 -61.270318 
L 215.841959 -61.270318 
L 215.485063 -61.270318 
L 215.128167 -61.270318 
L 214.77127 -61.270318 
L 214.414374 -61.270318 
L 214.057478 -61.270318 
L 213.700582 -61.270318 
L 213.343685 -61.270318 
L 212.986789 -61.270318 
L 212.629893 -61.270318 
L 212.272997 -61.270318 
L 211.916101 -61.270318 
L 211.559204 -61.270318 
L 211.202308 -61.270318 
L 210.845412 -61.270318 
L 210.488516 -61.270318 
L 210.131619 -61.270318 
L 209.774723 -61.270318 
L 209.417827 -61.270318 
L 209.060931 -61.270318 
L 208.704034 -61.270318 
L 208.347138 -61.270318 
L 207.990242 -61.270318 
L 207.633346 -61.270318 
L 207.27645 -61.270318 
L 206.919553 -61.270318 
L 206.562657 -61.270318 
L 206.205761 -61.270318 
L 205.848865 -61.270318 
L 205.491968 -61.270318 
L 205.135072 -61.270318 
L 204.778176 -61.270318 
L 204.42128 -61.270318 
L 204.064383 -61.270318 
L 203.707487 -61.270318 
L 203.350591 -61.270318 
L 202.993695 -61.270318 
L 202.636799 -61.270318 
L 202.279902 -61.270318 
L 201.923006 -61.270318 
L 201.56611 -61.270318 
L 201.209214 -61.270318 
L 200.852317 -61.270318 
L 200.495421 -61.270318 
L 200.138525 -61.270318 
L 199.781629 -61.270318 
L 199.424732 -61.270318 
L 199.067836 -61.270318 
L 198.71094 -61.270318 
L 198.354044 -61.270318 
L 197.997147 -61.270318 
L 197.640251 -61.270318 
L 197.283355 -61.270318 
L 196.926459 -61.270318 
L 196.569563 -61.270318 
L 196.212666 -61.270318 
L 195.85577 -61.270318 
L 195.498874 -61.270318 
L 195.141978 -61.270318 
L 194.785081 -61.270318 
L 194.428185 -61.270318 
L 194.071289 -61.270318 
L 193.714393 -61.270318 
L 193.357496 -61.270318 
L 193.0006 -61.270318 
L 192.643704 -61.270318 
L 192.286808 -61.270318 
L 191.929912 -61.270318 
L 191.573015 -61.270318 
L 191.216119 -61.270318 
L 190.859223 -61.270318 
L 190.502327 -61.270318 
L 190.14543 -61.270318 
L 189.788534 -61.270318 
L 189.431638 -61.270318 
L 189.074742 -61.270318 
L 188.717845 -61.270318 
L 188.360949 -61.270318 
L 188.004053 -61.270318 
L 187.647157 -61.270318 
L 187.290261 -61.270318 
L 186.933364 -61.270318 
L 186.576468 -61.270318 
L 186.219572 -61.270318 
L 185.862676 -61.270318 
L 185.505779 -61.270318 
L 185.148883 -61.270318 
L 184.791987 -61.270318 
L 184.435091 -61.270318 
L 184.078194 -61.270318 
L 183.721298 -61.270318 
L 183.364402 -61.270318 
L 183.007506 -61.270318 
L 182.650609 -61.270318 
L 182.293713 -61.270318 
L 181.936817 -61.270318 
L 181.579921 -61.270318 
L 181.223025 -61.270318 
L 180.866128 -61.270318 
L 180.509232 -61.270318 
L 180.152336 -61.270318 
L 179.79544 -61.270318 
L 179.438543 -61.270318 
L 179.081647 -61.270318 
L 178.724751 -61.270318 
L 178.367855 -61.270318 
L 178.010958 -61.270318 
L 177.654062 -61.270318 
L 177.297166 -61.270318 
L 176.94027 -61.270318 
L 176.583374 -61.270318 
L 176.226477 -61.270318 
L 175.869581 -61.270318 
L 175.512685 -61.270318 
L 175.155789 -61.270318 
L 174.798892 -61.270318 
L 174.441996 -61.270318 
L 174.0851 -61.270318 
L 173.728204 -61.270318 
L 173.371307 -61.270318 
L 173.014411 -61.270318 
L 172.657515 -61.270318 
L 172.300619 -61.270318 
L 171.943723 -61.270318 
L 171.586826 -61.270318 
L 171.22993 -61.270318 
L 170.873034 -61.270318 
L 170.516138 -61.270318 
L 170.159241 -61.270318 
L 169.802345 -61.270318 
L 169.445449 -61.270318 
L 169.088553 -61.270318 
L 168.731656 -61.270318 
L 168.37476 -61.270318 
L 168.017864 -61.270318 
L 167.660968 -61.270318 
L 167.304071 -61.270318 
L 166.947175 -61.270318 
L 166.590279 -61.270318 
L 166.233383 -61.270318 
L 165.876487 -61.270318 
L 165.51959 -61.270318 
L 165.162694 -61.270318 
L 164.805798 -61.270318 
L 164.448902 -61.270318 
L 164.092005 -61.270318 
L 163.735109 -61.270318 
L 163.378213 -61.270318 
L 163.021317 -61.270318 
L 162.66442 -61.270318 
L 162.307524 -61.270318 
L 161.950628 -61.270318 
L 161.593732 -61.270318 
L 161.236836 -61.270318 
L 160.879939 -61.270318 
L 160.523043 -61.270318 
L 160.166147 -61.270318 
L 159.809251 -61.270318 
L 159.452354 -61.270318 
L 159.095458 -61.270318 
L 158.738562 -61.270318 
L 158.381666 -61.270318 
L 158.024769 -61.270318 
L 157.667873 -61.270318 
L 157.310977 -61.270318 
L 156.954081 -61.270318 
L 156.597185 -61.270318 
L 156.240288 -61.270318 
L 155.883392 -61.270318 
L 155.526496 -61.270318 
L 155.1696 -61.270318 
L 154.812703 -61.270318 
L 154.455807 -61.270318 
L 154.098911 -61.270318 
L 153.742015 -61.270318 
L 153.385118 -61.270318 
L 153.028222 -61.270318 
L 152.671326 -61.270318 
L 152.31443 -61.270318 
L 151.957533 -61.270318 
L 151.600637 -61.270318 
L 151.243741 -61.270318 
L 150.886845 -61.270318 
L 150.529949 -61.270318 
L 150.173052 -61.270318 
L 149.816156 -61.270318 
L 149.45926 -61.270318 
L 149.102364 -61.270318 
L 148.745467 -61.270318 
L 148.388571 -61.270318 
L 148.031675 -61.270318 
L 147.674779 -61.270318 
L 147.317882 -61.270318 
L 146.960986 -61.270318 
L 146.60409 -61.270318 
L 146.247194 -61.270318 
L 145.890298 -61.270318 
L 145.533401 -61.270318 
L 145.176505 -61.270318 
L 144.819609 -61.270318 
L 144.462713 -61.270318 
L 144.105816 -61.270318 
L 143.74892 -61.270318 
L 143.392024 -61.270318 
L 143.035128 -61.270318 
L 142.678231 -61.270318 
L 142.321335 -61.270318 
L 141.964439 -61.270318 
L 141.607543 -61.270318 
L 141.250646 -61.270318 
L 140.89375 -61.270318 
L 140.536854 -61.270318 
L 140.179958 -61.270318 
L 139.823062 -61.270318 
L 139.466165 -61.270318 
L 139.109269 -61.270318 
L 138.752373 -61.270318 
L 138.395477 -61.270318 
L 138.03858 -61.270318 
L 137.681684 -61.270318 
L 137.324788 -61.270318 
L 136.967892 -61.270318 
L 136.610995 -61.270318 
L 136.254099 -61.270318 
L 135.897203 -61.270318 
L 135.540307 -61.270318 
L 135.183411 -61.270318 
L 134.826514 -61.270318 
L 134.469618 -61.270318 
L 134.112722 -61.270318 
L 133.755826 -61.270318 
L 133.398929 -61.270318 
L 133.042033 -61.270318 
L 132.685137 -61.270318 
L 132.328241 -61.270318 
L 131.971344 -61.270318 
L 131.614448 -61.270318 
L 131.257552 -61.270318 
L 130.900656 -61.270318 
L 130.54376 -61.270318 
L 130.186863 -61.270318 
L 129.829967 -61.270318 
L 129.473071 -61.270318 
L 129.116175 -61.270318 
L 128.759278 -61.270318 
L 128.402382 -61.270318 
L 128.045486 -61.270318 
L 127.68859 -61.270318 
L 127.331693 -61.270318 
L 126.974797 -61.270318 
L 126.617901 -61.270318 
L 126.261005 -61.270318 
L 125.904108 -61.270318 
L 125.547212 -61.270318 
L 125.190316 -61.270318 
L 124.83342 -61.270318 
L 124.476524 -61.270318 
L 124.119627 -61.270318 
L 123.762731 -61.270318 
L 123.405835 -61.270318 
L 123.048939 -61.270318 
L 122.692042 -61.270318 
L 122.335146 -61.270318 
L 121.97825 -61.270318 
L 121.621354 -61.270318 
L 121.264457 -61.270318 
L 120.907561 -61.270318 
L 120.550665 -61.270318 
L 120.193769 -61.270318 
L 119.836873 -61.270318 
L 119.479976 -61.270318 
L 119.12308 -61.270318 
L 118.766184 -61.270318 
L 118.409288 -61.270318 
L 118.052391 -61.270318 
L 117.695495 -61.270318 
L 117.338599 -61.270318 
L 116.981703 -61.270318 
L 116.624806 -61.270318 
L 116.26791 -61.270318 
L 115.911014 -61.270318 
L 115.554118 -61.270318 
L 115.197222 -61.270318 
L 114.840325 -61.270318 
L 114.483429 -61.270318 
L 114.126533 -61.270318 
L 113.769637 -61.270318 
L 113.41274 -61.270318 
L 113.055844 -61.270318 
L 112.698948 -61.270318 
L 112.342052 -61.270318 
L 111.985155 -61.270318 
L 111.628259 -61.270318 
L 111.271363 -61.270318 
L 110.914467 -61.270318 
L 110.55757 -61.270318 
L 110.200674 -61.270318 
L 109.843778 -61.270318 
L 109.486882 -61.270318 
L 109.129986 -61.270318 
L 108.773089 -61.270318 
L 108.416193 -61.270318 
L 108.059297 -61.270318 
L 107.702401 -61.270318 
L 107.345504 -61.270318 
L 106.988608 -61.270318 
L 106.631712 -61.270318 
L 106.274816 -61.270318 
L 105.917919 -61.270318 
L 105.561023 -61.270318 
L 105.204127 -61.270318 
L 104.847231 -61.270318 
L 104.490335 -61.270318 
L 104.133438 -61.270318 
L 103.776542 -61.270318 
L 103.419646 -61.270318 
L 103.06275 -61.270318 
L 102.705853 -61.270318 
L 102.348957 -61.270318 
L 101.992061 -61.270318 
L 101.635165 -61.270318 
L 101.278268 -61.270318 
L 100.921372 -61.270318 
L 100.564476 -61.270318 
L 100.20758 -61.270318 
L 99.850684 -61.270318 
L 99.493787 -61.270318 
L 99.136891 -61.270318 
L 98.779995 -61.270318 
L 98.423099 -61.270318 
L 98.066202 -61.270318 
L 97.709306 -61.270318 
L 97.35241 -61.270318 
L 96.995514 -61.270318 
L 96.638617 -61.270318 
L 96.281721 -61.270318 
L 95.924825 -61.270318 
L 95.567929 -61.270318 
L 95.211032 -61.270318 
L 94.854136 -61.270318 
L 94.49724 -61.270318 
L 94.140344 -61.270318 
L 93.783448 -61.270318 
L 93.426551 -61.270318 
L 93.069655 -61.270318 
L 92.712759 -61.270318 
L 92.355863 -61.270318 
L 91.998966 -61.270318 
L 91.64207 -61.270318 
L 91.285174 -61.270318 
L 90.928278 -61.270318 
L 90.571381 -61.270318 
L 90.214485 -61.270318 
L 89.857589 -61.270318 
L 89.500693 -61.270318 
L 89.143797 -61.270318 
L 88.7869 -61.270318 
L 88.430004 -61.270318 
L 88.073108 -61.270318 
L 87.716212 -61.270318 
L 87.359315 -61.270318 
L 87.002419 -61.270318 
L 86.645523 -61.270318 
L 86.288627 -61.270318 
L 85.93173 -61.270318 
L 85.574834 -61.270318 
L 85.217938 -61.270318 
L 84.861042 -61.270318 
L 84.504146 -61.270318 
L 84.147249 -61.270318 
L 83.790353 -61.270318 
L 83.433457 -61.270318 
z
" style="stroke: #008000; stroke-opacity: 0.5"/>
    </defs>
    <g clip-path="url(#p37c1b54670)">
     <use xlink:href="#m130064a9b1" x="0" y="345.6" style="fill: #008000; fill-opacity: 0.5; stroke: #008000; stroke-opacity: 0.5"/>
    </g>
   </g>
   <g id="matplotlib.axis_1">
    <g id="xtick_1">
     <g id="line2d_1">
      <path d="M 83.433457 297.726322 
L 83.433457 3.00024 
" clip-path="url(#p37c1b54670)" style="fill: none; stroke: #b0b0b0; stroke-width: 0.8; stroke-linecap: square"/>
     </g>
     <g id="line2d_2">
      <defs>
       <path id="mfbd560d7fa" d="M 0 0 
L 0 3.5 
" style="stroke: #000000; stroke-width: 0.8"/>
      </defs>
      <g>
       <use xlink:href="#mfbd560d7fa" x="83.433457" y="297.726322" style="stroke: #000000; stroke-width: 0.8"/>
      </g>
     </g>
     <g id="text_1">
      <!-- $a$ -->
      <g transform="translate(78.783457 316.123979) scale(0.15 -0.15)">
       <defs>
        <path id="DejaVuSans-Oblique-61" d="M 3438 1997 
L 3047 0 
L 2472 0 
L 2578 531 
Q 2325 219 2001 64 
Q 1678 -91 1281 -91 
Q 834 -91 548 182 
Q 263 456 263 884 
Q 263 1497 752 1853 
Q 1241 2209 2100 2209 
L 2900 2209 
L 2931 2363 
Q 2938 2388 2941 2417 
Q 2944 2447 2944 2509 
Q 2944 2788 2717 2942 
Q 2491 3097 2081 3097 
Q 1800 3097 1504 3025 
Q 1209 2953 897 2809 
L 997 3341 
Q 1322 3463 1633 3523 
Q 1944 3584 2234 3584 
Q 2853 3584 3176 3315 
Q 3500 3047 3500 2534 
Q 3500 2431 3484 2292 
Q 3469 2153 3438 1997 
z
M 2816 1759 
L 2241 1759 
Q 1534 1759 1195 1570 
Q 856 1381 856 984 
Q 856 709 1029 553 
Q 1203 397 1509 397 
Q 1978 397 2328 733 
Q 2678 1069 2791 1631 
L 2816 1759 
z
" transform="scale(0.015625)"/>
       </defs>
       <use xlink:href="#DejaVuSans-Oblique-61"/>
      </g>
     </g>
    </g>
    <g id="xtick_2">
     <g id="line2d_3">
      <path d="M 261.703125 297.726322 
L 261.703125 3.00024 
" clip-path="url(#p37c1b54670)" style="fill: none; stroke: #b0b0b0; stroke-width: 0.8; stroke-linecap: square"/>
     </g>
     <g id="line2d_4">
      <g>
       <use xlink:href="#mfbd560d7fa" x="261.703125" y="297.726322" style="stroke: #000000; stroke-width: 0.8"/>
      </g>
     </g>
     <g id="text_2">
      <!-- 0 -->
      <g transform="translate(256.93125 316.123979) scale(0.15 -0.15)">
       <defs>
        <path id="DejaVuSans-30" d="M 2034 4250 
Q 1547 4250 1301 3770 
Q 1056 3291 1056 2328 
Q 1056 1369 1301 889 
Q 1547 409 2034 409 
Q 2525 409 2770 889 
Q 3016 1369 3016 2328 
Q 3016 3291 2770 3770 
Q 2525 4250 2034 4250 
z
M 2034 4750 
Q 2819 4750 3233 4129 
Q 3647 3509 3647 2328 
Q 3647 1150 3233 529 
Q 2819 -91 2034 -91 
Q 1250 -91 836 529 
Q 422 1150 422 2328 
Q 422 3509 836 4129 
Q 1250 4750 2034 4750 
z
" transform="scale(0.015625)"/>
       </defs>
       <use xlink:href="#DejaVuSans-30"/>
      </g>
     </g>
    </g>
    <g id="xtick_3">
     <g id="line2d_5">
      <path d="M 439.972793 297.726322 
L 439.972793 3.00024 
" clip-path="url(#p37c1b54670)" style="fill: none; stroke: #b0b0b0; stroke-width: 0.8; stroke-linecap: square"/>
     </g>
     <g id="line2d_6">
      <g>
       <use xlink:href="#mfbd560d7fa" x="439.972793" y="297.726322" style="stroke: #000000; stroke-width: 0.8"/>
      </g>
     </g>
     <g id="text_3">
      <!-- $b$ -->
      <g transform="translate(435.172793 316.123979) scale(0.15 -0.15)">
       <defs>
        <path id="DejaVuSans-Oblique-62" d="M 3169 2138 
Q 3169 2591 2961 2847 
Q 2753 3103 2388 3103 
Q 2122 3103 1889 2973 
Q 1656 2844 1484 2597 
Q 1303 2338 1198 1995 
Q 1094 1653 1094 1313 
Q 1094 881 1298 636 
Q 1503 391 1863 391 
Q 2134 391 2365 517 
Q 2597 644 2772 891 
Q 2950 1147 3059 1487 
Q 3169 1828 3169 2138 
z
M 1381 2969 
Q 1594 3256 1914 3420 
Q 2234 3584 2584 3584 
Q 3122 3584 3439 3221 
Q 3756 2859 3756 2241 
Q 3756 1734 3570 1259 
Q 3384 784 3041 416 
Q 2816 172 2522 40 
Q 2228 -91 1906 -91 
Q 1566 -91 1316 65 
Q 1066 222 909 531 
L 806 0 
L 231 0 
L 1178 4863 
L 1753 4863 
L 1381 2969 
z
" transform="scale(0.015625)"/>
       </defs>
       <use xlink:href="#DejaVuSans-Oblique-62" transform="translate(0 0.015625)"/>
      </g>
     </g>
    </g>
    <g id="text_4">
     <!-- $x$ -->
     <g transform="translate(255.703125 338.440385) scale(0.2 -0.2)">
      <defs>
       <path id="DejaVuSans-Oblique-78" d="M 3841 3500 
L 2234 1784 
L 3219 0 
L 2559 0 
L 1819 1388 
L 531 0 
L -166 0 
L 1556 1844 
L 641 3500 
L 1300 3500 
L 1972 2234 
L 3144 3500 
L 3841 3500 
z
" transform="scale(0.015625)"/>
      </defs>
      <use xlink:href="#DejaVuSans-Oblique-78" transform="translate(0 0.3125)"/>
     </g>
    </g>
   </g>
   <g id="matplotlib.axis_2">
    <g id="ytick_1">
     <g id="line2d_7">
      <path d="M 65.60649 284.329682 
L 457.79976 284.329682 
" clip-path="url(#p37c1b54670)" style="fill: none; stroke: #b0b0b0; stroke-width: 0.8; stroke-linecap: square"/>
     </g>
     <g id="line2d_8">
      <defs>
       <path id="m8a03d842d1" d="M 0 0 
L -3.5 0 
" style="stroke: #000000; stroke-width: 0.8"/>
      </defs>
      <g>
       <use xlink:href="#m8a03d842d1" x="65.60649" y="284.329682" style="stroke: #000000; stroke-width: 0.8"/>
      </g>
     </g>
     <g id="text_5">
      <!-- $y_{min}$ -->
      <g transform="translate(29.50649 290.013276) scale(0.15 -0.15)">
       <defs>
        <path id="DejaVuSans-Oblique-79" d="M 1588 -325 
Q 1188 -997 936 -1164 
Q 684 -1331 294 -1331 
L -159 -1331 
L -63 -850 
L 269 -850 
Q 509 -850 678 -719 
Q 847 -588 1056 -206 
L 1234 128 
L 459 3500 
L 1069 3500 
L 1650 819 
L 3256 3500 
L 3859 3500 
L 1588 -325 
z
" transform="scale(0.015625)"/>
        <path id="DejaVuSans-Oblique-6d" d="M 5747 2113 
L 5338 0 
L 4763 0 
L 5166 2094 
Q 5191 2228 5203 2325 
Q 5216 2422 5216 2491 
Q 5216 2772 5059 2928 
Q 4903 3084 4622 3084 
Q 4203 3084 3875 2770 
Q 3547 2456 3450 1953 
L 3066 0 
L 2491 0 
L 2900 2094 
Q 2925 2209 2937 2307 
Q 2950 2406 2950 2484 
Q 2950 2769 2794 2926 
Q 2638 3084 2363 3084 
Q 1938 3084 1609 2770 
Q 1281 2456 1184 1953 
L 800 0 
L 225 0 
L 909 3500 
L 1484 3500 
L 1375 2956 
Q 1609 3263 1923 3423 
Q 2238 3584 2597 3584 
Q 2978 3584 3223 3384 
Q 3469 3184 3519 2828 
Q 3781 3197 4126 3390 
Q 4472 3584 4856 3584 
Q 5306 3584 5551 3325 
Q 5797 3066 5797 2591 
Q 5797 2488 5784 2364 
Q 5772 2241 5747 2113 
z
" transform="scale(0.015625)"/>
        <path id="DejaVuSans-Oblique-69" d="M 1172 4863 
L 1747 4863 
L 1606 4134 
L 1031 4134 
L 1172 4863 
z
M 909 3500 
L 1484 3500 
L 800 0 
L 225 0 
L 909 3500 
z
" transform="scale(0.015625)"/>
        <path id="DejaVuSans-Oblique-6e" d="M 3566 2113 
L 3156 0 
L 2578 0 
L 2988 2091 
Q 3016 2238 3031 2350 
Q 3047 2463 3047 2528 
Q 3047 2791 2881 2937 
Q 2716 3084 2419 3084 
Q 1956 3084 1622 2776 
Q 1288 2469 1184 1941 
L 800 0 
L 225 0 
L 903 3500 
L 1478 3500 
L 1363 2950 
Q 1603 3253 1940 3418 
Q 2278 3584 2650 3584 
Q 3113 3584 3367 3334 
Q 3622 3084 3622 2631 
Q 3622 2519 3608 2391 
Q 3594 2263 3566 2113 
z
" transform="scale(0.015625)"/>
       </defs>
       <use xlink:href="#DejaVuSans-Oblique-79" transform="translate(0 0.3125)"/>
       <use xlink:href="#DejaVuSans-Oblique-6d" transform="translate(59.179688 -16.09375) scale(0.7)"/>
       <use xlink:href="#DejaVuSans-Oblique-69" transform="translate(127.368164 -16.09375) scale(0.7)"/>
       <use xlink:href="#DejaVuSans-Oblique-6e" transform="translate(146.816406 -16.09375) scale(0.7)"/>
      </g>
     </g>
    </g>
    <g id="ytick_2">
     <g id="line2d_9">
      <path d="M 65.60649 150.363281 
L 457.79976 150.363281 
" clip-path="url(#p37c1b54670)" style="fill: none; stroke: #b0b0b0; stroke-width: 0.8; stroke-linecap: square"/>
     </g>
     <g id="line2d_10">
      <g>
       <use xlink:href="#m8a03d842d1" x="65.60649" y="150.363281" style="stroke: #000000; stroke-width: 0.8"/>
      </g>
     </g>
     <g id="text_6">
      <!-- 0 -->
      <g transform="translate(49.06274 156.062109) scale(0.15 -0.15)">
       <use xlink:href="#DejaVuSans-30"/>
      </g>
     </g>
    </g>
    <g id="ytick_3">
     <g id="line2d_11">
      <path d="M 65.60649 16.39688 
L 457.79976 16.39688 
" clip-path="url(#p37c1b54670)" style="fill: none; stroke: #b0b0b0; stroke-width: 0.8; stroke-linecap: square"/>
     </g>
     <g id="line2d_12">
      <g>
       <use xlink:href="#m8a03d842d1" x="65.60649" y="16.39688" style="stroke: #000000; stroke-width: 0.8"/>
      </g>
     </g>
     <g id="text_7">
      <!-- $y_{max}$ -->
      <g transform="translate(26.35649 22.080474) scale(0.15 -0.15)">
       <use xlink:href="#DejaVuSans-Oblique-79" transform="translate(0 0.3125)"/>
       <use xlink:href="#DejaVuSans-Oblique-6d" transform="translate(59.179688 -16.09375) scale(0.7)"/>
       <use xlink:href="#DejaVuSans-Oblique-61" transform="translate(127.368164 -16.09375) scale(0.7)"/>
       <use xlink:href="#DejaVuSans-Oblique-78" transform="translate(170.263672 -16.09375) scale(0.7)"/>
      </g>
     </g>
    </g>
    <g id="text_8">
     <!-- $y$ -->
     <g transform="translate(18.15649 156.363281) rotate(-90) scale(0.2 -0.2)">
      <use xlink:href="#DejaVuSans-Oblique-79" transform="translate(0 0.3125)"/>
     </g>
    </g>
   </g>
   <g id="line2d_13">
    <path d="M 83.433457 284.329682 
L 92.712759 283.198108 
L 101.278268 281.9336 
L 109.129986 280.553944 
L 116.624806 279.006673 
L 123.405835 277.383299 
L 129.829967 275.62251 
L 135.897203 273.735786 
L 141.607543 271.739167 
L 147.317882 269.506204 
L 152.671326 267.177862 
L 158.024769 264.602233 
L 163.021317 261.957633 
L 168.017864 259.06399 
L 173.014411 255.90524 
L 178.010958 252.465878 
L 182.650609 249.008189 
L 187.290261 245.285426 
L 191.929912 241.288436 
L 196.569563 237.009854 
L 201.209214 232.444499 
L 206.205761 227.204351 
L 211.202308 221.629323 
L 216.198855 215.724628 
L 221.552299 209.044057 
L 227.262639 201.53598 
L 233.329875 193.162591 
L 239.754007 183.907682 
L 247.248828 172.702724 
L 256.885026 157.867613 
L 277.941904 125.3227 
L 285.436724 114.211845 
L 291.860857 105.061542 
L 297.928093 96.803664 
L 303.638432 89.415959 
L 308.991876 82.855801 
L 313.988423 77.06794 
L 318.98497 71.612161 
L 323.981518 66.491994 
L 328.978065 61.706602 
L 333.617716 57.558771 
L 338.257367 53.68938 
L 342.897018 50.09019 
L 347.893565 46.50499 
L 352.890112 43.207822 
L 357.88666 40.183608 
L 362.883207 37.416515 
L 367.879754 34.890335 
L 373.233198 32.432567 
L 378.586641 30.212916 
L 384.296981 28.086102 
L 390.364217 26.074259 
L 396.431453 24.292981 
L 402.855585 22.631959 
L 409.636613 21.101725 
L 417.131434 19.644262 
L 424.983151 18.345536 
L 433.548661 17.155908 
L 439.972793 16.39688 
L 439.972793 16.39688 
" clip-path="url(#p37c1b54670)" style="fill: none; stroke: #ff0000; stroke-width: 5; stroke-linecap: square"/>
   </g>
   <g id="line2d_14">
    <defs>
     <path id="m0c60604ef8" d="M -3.5 3.5 
L 3.5 -3.5 
M -3.5 -3.5 
L 3.5 3.5 
" style="stroke: #000000"/>
    </defs>
    <g clip-path="url(#p37c1b54670)">
     <use xlink:href="#m0c60604ef8" x="209.542354" y="22.896819" style="stroke: #000000"/>
     <use xlink:href="#m0c60604ef8" x="393.872562" y="52.172894" style="stroke: #000000"/>
     <use xlink:href="#m0c60604ef8" x="250.330774" y="80.584858" style="stroke: #000000"/>
     <use xlink:href="#m0c60604ef8" x="434.402793" y="97.734835" style="stroke: #000000"/>
     <use xlink:href="#m0c60604ef8" x="292.095346" y="145.204225" style="stroke: #000000"/>
     <use xlink:href="#m0c60604ef8" x="391.097336" y="264.779271" style="stroke: #000000"/>
     <use xlink:href="#m0c60604ef8" x="341.322052" y="124.688301" style="stroke: #000000"/>
     <use xlink:href="#m0c60604ef8" x="439.046766" y="220.973201" style="stroke: #000000"/>
     <use xlink:href="#m0c60604ef8" x="362.466853" y="114.5584" style="stroke: #000000"/>
     <use xlink:href="#m0c60604ef8" x="95.827935" y="145.387884" style="stroke: #000000"/>
     <use xlink:href="#m0c60604ef8" x="90.147822" y="253.05401" style="stroke: #000000"/>
     <use xlink:href="#m0c60604ef8" x="341.034888" y="82.923744" style="stroke: #000000"/>
     <use xlink:href="#m0c60604ef8" x="359.165028" y="196.73895" style="stroke: #000000"/>
     <use xlink:href="#m0c60604ef8" x="308.060968" y="65.847234" style="stroke: #000000"/>
     <use xlink:href="#m0c60604ef8" x="162.985266" y="252.321622" style="stroke: #000000"/>
     <use xlink:href="#m0c60604ef8" x="325.567155" y="57.721798" style="stroke: #000000"/>
     <use xlink:href="#m0c60604ef8" x="292.837783" y="183.43896" style="stroke: #000000"/>
     <use xlink:href="#m0c60604ef8" x="370.229469" y="150.59719" style="stroke: #000000"/>
     <use xlink:href="#m0c60604ef8" x="353.43169" y="114.433772" style="stroke: #000000"/>
     <use xlink:href="#m0c60604ef8" x="405.909103" y="272.883694" style="stroke: #000000"/>
     <use xlink:href="#m0c60604ef8" x="265.904258" y="83.223893" style="stroke: #000000"/>
     <use xlink:href="#m0c60604ef8" x="149.74592" y="50.175425" style="stroke: #000000"/>
     <use xlink:href="#m0c60604ef8" x="99.311935" y="50.747804" style="stroke: #000000"/>
     <use xlink:href="#m0c60604ef8" x="383.982618" y="35.234614" style="stroke: #000000"/>
     <use xlink:href="#m0c60604ef8" x="190.019417" y="59.772015" style="stroke: #000000"/>
     <use xlink:href="#m0c60604ef8" x="404.481186" y="220.329042" style="stroke: #000000"/>
     <use xlink:href="#m0c60604ef8" x="298.689788" y="262.534433" style="stroke: #000000"/>
     <use xlink:href="#m0c60604ef8" x="386.285144" y="251.483549" style="stroke: #000000"/>
     <use xlink:href="#m0c60604ef8" x="227.358807" y="118.333856" style="stroke: #000000"/>
     <use xlink:href="#m0c60604ef8" x="369.653671" y="52.219152" style="stroke: #000000"/>
     <use xlink:href="#m0c60604ef8" x="288.97387" y="221.913715" style="stroke: #000000"/>
     <use xlink:href="#m0c60604ef8" x="252.469208" y="279.04348" style="stroke: #000000"/>
     <use xlink:href="#m0c60604ef8" x="93.687255" y="165.878795" style="stroke: #000000"/>
     <use xlink:href="#m0c60604ef8" x="319.639088" y="196.53408" style="stroke: #000000"/>
     <use xlink:href="#m0c60604ef8" x="404.96635" y="159.479101" style="stroke: #000000"/>
     <use xlink:href="#m0c60604ef8" x="301.535948" y="162.708372" style="stroke: #000000"/>
     <use xlink:href="#m0c60604ef8" x="88.011326" y="249.611786" style="stroke: #000000"/>
     <use xlink:href="#m0c60604ef8" x="266.76647" y="277.956175" style="stroke: #000000"/>
     <use xlink:href="#m0c60604ef8" x="427.633132" y="204.03532" style="stroke: #000000"/>
     <use xlink:href="#m0c60604ef8" x="276.061045" y="50.831224" style="stroke: #000000"/>
     <use xlink:href="#m0c60604ef8" x="282.984247" y="20.018269" style="stroke: #000000"/>
     <use xlink:href="#m0c60604ef8" x="295.54535" y="130.77223" style="stroke: #000000"/>
     <use xlink:href="#m0c60604ef8" x="126.825696" y="71.736601" style="stroke: #000000"/>
     <use xlink:href="#m0c60604ef8" x="122.750765" y="251.029443" style="stroke: #000000"/>
     <use xlink:href="#m0c60604ef8" x="139.785452" y="126.225674" style="stroke: #000000"/>
     <use xlink:href="#m0c60604ef8" x="186.334075" y="232.628436" style="stroke: #000000"/>
     <use xlink:href="#m0c60604ef8" x="224.246241" y="82.387713" style="stroke: #000000"/>
     <use xlink:href="#m0c60604ef8" x="277.06603" y="57.432232" style="stroke: #000000"/>
     <use xlink:href="#m0c60604ef8" x="323.033655" y="122.323623" style="stroke: #000000"/>
     <use xlink:href="#m0c60604ef8" x="275.138273" y="92.680629" style="stroke: #000000"/>
    </g>
   </g>
   <g id="patch_3">
    <path d="M 65.60649 297.726322 
L 65.60649 3.00024 
" style="fill: none; stroke: #000000; stroke-width: 0.8; stroke-linejoin: miter; stroke-linecap: square"/>
   </g>
   <g id="patch_4">
    <path d="M 457.79976 297.726322 
L 457.79976 3.00024 
" style="fill: none; stroke: #000000; stroke-width: 0.8; stroke-linejoin: miter; stroke-linecap: square"/>
   </g>
   <g id="patch_5">
    <path d="M 65.60649 297.726322 
L 457.79976 297.726322 
" style="fill: none; stroke: #000000; stroke-width: 0.8; stroke-linejoin: miter; stroke-linecap: square"/>
   </g>
   <g id="patch_6">
    <path d="M 65.60649 3.00024 
L 457.79976 3.00024 
" style="fill: none; stroke: #000000; stroke-width: 0.8; stroke-linejoin: miter; stroke-linecap: square"/>
   </g>
   <g id="legend_1">
    <g id="patch_7">
     <path d="M 76.10649 59.034615 
L 237.03774 59.034615 
Q 240.03774 59.034615 240.03774 56.034615 
L 240.03774 13.50024 
Q 240.03774 10.50024 237.03774 10.50024 
L 76.10649 10.50024 
Q 73.10649 10.50024 73.10649 13.50024 
L 73.10649 56.034615 
Q 73.10649 59.034615 76.10649 59.034615 
z
" style="fill: #ffffff; stroke: #cccccc; stroke-linejoin: miter"/>
    </g>
    <g id="line2d_15">
     <path d="M 79.10649 22.647896 
L 94.10649 22.647896 
L 109.10649 22.647896 
" style="fill: none; stroke: #ff0000; stroke-width: 5; stroke-linecap: square"/>
    </g>
    <g id="text_9">
     <!-- $f(x)$ -->
     <g transform="translate(121.10649 27.897896) scale(0.15 -0.15)">
      <defs>
       <path id="DejaVuSans-Oblique-66" d="M 3059 4863 
L 2969 4384 
L 2419 4384 
Q 2106 4384 1964 4261 
Q 1822 4138 1753 3809 
L 1691 3500 
L 2638 3500 
L 2553 3053 
L 1606 3053 
L 1013 0 
L 434 0 
L 1031 3053 
L 481 3053 
L 563 3500 
L 1113 3500 
L 1159 3744 
Q 1278 4363 1576 4613 
Q 1875 4863 2516 4863 
L 3059 4863 
z
" transform="scale(0.015625)"/>
       <path id="DejaVuSans-28" d="M 1984 4856 
Q 1566 4138 1362 3434 
Q 1159 2731 1159 2009 
Q 1159 1288 1364 580 
Q 1569 -128 1984 -844 
L 1484 -844 
Q 1016 -109 783 600 
Q 550 1309 550 2009 
Q 550 2706 781 3412 
Q 1013 4119 1484 4856 
L 1984 4856 
z
" transform="scale(0.015625)"/>
       <path id="DejaVuSans-29" d="M 513 4856 
L 1013 4856 
Q 1481 4119 1714 3412 
Q 1947 2706 1947 2009 
Q 1947 1309 1714 600 
Q 1481 -109 1013 -844 
L 513 -844 
Q 928 -128 1133 580 
Q 1338 1288 1338 2009 
Q 1338 2731 1133 3434 
Q 928 4138 513 4856 
z
" transform="scale(0.015625)"/>
      </defs>
      <use xlink:href="#DejaVuSans-Oblique-66" transform="translate(0 0.015625)"/>
      <use xlink:href="#DejaVuSans-28" transform="translate(35.205078 0.015625)"/>
      <use xlink:href="#DejaVuSans-Oblique-78" transform="translate(74.21875 0.015625)"/>
      <use xlink:href="#DejaVuSans-29" transform="translate(133.398438 0.015625)"/>
     </g>
    </g>
    <g id="line2d_16">
     <g>
      <use xlink:href="#m0c60604ef8" x="94.10649" y="44.665084" style="stroke: #000000"/>
     </g>
    </g>
    <g id="text_10">
     <!-- Random points -->
     <g transform="translate(121.10649 49.915084) scale(0.15 -0.15)">
      <defs>
       <path id="DejaVuSans-52" d="M 2841 2188 
Q 3044 2119 3236 1894 
Q 3428 1669 3622 1275 
L 4263 0 
L 3584 0 
L 2988 1197 
Q 2756 1666 2539 1819 
Q 2322 1972 1947 1972 
L 1259 1972 
L 1259 0 
L 628 0 
L 628 4666 
L 2053 4666 
Q 2853 4666 3247 4331 
Q 3641 3997 3641 3322 
Q 3641 2881 3436 2590 
Q 3231 2300 2841 2188 
z
M 1259 4147 
L 1259 2491 
L 2053 2491 
Q 2509 2491 2742 2702 
Q 2975 2913 2975 3322 
Q 2975 3731 2742 3939 
Q 2509 4147 2053 4147 
L 1259 4147 
z
" transform="scale(0.015625)"/>
       <path id="DejaVuSans-61" d="M 2194 1759 
Q 1497 1759 1228 1600 
Q 959 1441 959 1056 
Q 959 750 1161 570 
Q 1363 391 1709 391 
Q 2188 391 2477 730 
Q 2766 1069 2766 1631 
L 2766 1759 
L 2194 1759 
z
M 3341 1997 
L 3341 0 
L 2766 0 
L 2766 531 
Q 2569 213 2275 61 
Q 1981 -91 1556 -91 
Q 1019 -91 701 211 
Q 384 513 384 1019 
Q 384 1609 779 1909 
Q 1175 2209 1959 2209 
L 2766 2209 
L 2766 2266 
Q 2766 2663 2505 2880 
Q 2244 3097 1772 3097 
Q 1472 3097 1187 3025 
Q 903 2953 641 2809 
L 641 3341 
Q 956 3463 1253 3523 
Q 1550 3584 1831 3584 
Q 2591 3584 2966 3190 
Q 3341 2797 3341 1997 
z
" transform="scale(0.015625)"/>
       <path id="DejaVuSans-6e" d="M 3513 2113 
L 3513 0 
L 2938 0 
L 2938 2094 
Q 2938 2591 2744 2837 
Q 2550 3084 2163 3084 
Q 1697 3084 1428 2787 
Q 1159 2491 1159 1978 
L 1159 0 
L 581 0 
L 581 3500 
L 1159 3500 
L 1159 2956 
Q 1366 3272 1645 3428 
Q 1925 3584 2291 3584 
Q 2894 3584 3203 3211 
Q 3513 2838 3513 2113 
z
" transform="scale(0.015625)"/>
       <path id="DejaVuSans-64" d="M 2906 2969 
L 2906 4863 
L 3481 4863 
L 3481 0 
L 2906 0 
L 2906 525 
Q 2725 213 2448 61 
Q 2172 -91 1784 -91 
Q 1150 -91 751 415 
Q 353 922 353 1747 
Q 353 2572 751 3078 
Q 1150 3584 1784 3584 
Q 2172 3584 2448 3432 
Q 2725 3281 2906 2969 
z
M 947 1747 
Q 947 1113 1208 752 
Q 1469 391 1925 391 
Q 2381 391 2643 752 
Q 2906 1113 2906 1747 
Q 2906 2381 2643 2742 
Q 2381 3103 1925 3103 
Q 1469 3103 1208 2742 
Q 947 2381 947 1747 
z
" transform="scale(0.015625)"/>
       <path id="DejaVuSans-6f" d="M 1959 3097 
Q 1497 3097 1228 2736 
Q 959 2375 959 1747 
Q 959 1119 1226 758 
Q 1494 397 1959 397 
Q 2419 397 2687 759 
Q 2956 1122 2956 1747 
Q 2956 2369 2687 2733 
Q 2419 3097 1959 3097 
z
M 1959 3584 
Q 2709 3584 3137 3096 
Q 3566 2609 3566 1747 
Q 3566 888 3137 398 
Q 2709 -91 1959 -91 
Q 1206 -91 779 398 
Q 353 888 353 1747 
Q 353 2609 779 3096 
Q 1206 3584 1959 3584 
z
" transform="scale(0.015625)"/>
       <path id="DejaVuSans-6d" d="M 3328 2828 
Q 3544 3216 3844 3400 
Q 4144 3584 4550 3584 
Q 5097 3584 5394 3201 
Q 5691 2819 5691 2113 
L 5691 0 
L 5113 0 
L 5113 2094 
Q 5113 2597 4934 2840 
Q 4756 3084 4391 3084 
Q 3944 3084 3684 2787 
Q 3425 2491 3425 1978 
L 3425 0 
L 2847 0 
L 2847 2094 
Q 2847 2600 2669 2842 
Q 2491 3084 2119 3084 
Q 1678 3084 1418 2786 
Q 1159 2488 1159 1978 
L 1159 0 
L 581 0 
L 581 3500 
L 1159 3500 
L 1159 2956 
Q 1356 3278 1631 3431 
Q 1906 3584 2284 3584 
Q 2666 3584 2933 3390 
Q 3200 3197 3328 2828 
z
" transform="scale(0.015625)"/>
       <path id="DejaVuSans-20" transform="scale(0.015625)"/>
       <path id="DejaVuSans-70" d="M 1159 525 
L 1159 -1331 
L 581 -1331 
L 581 3500 
L 1159 3500 
L 1159 2969 
Q 1341 3281 1617 3432 
Q 1894 3584 2278 3584 
Q 2916 3584 3314 3078 
Q 3713 2572 3713 1747 
Q 3713 922 3314 415 
Q 2916 -91 2278 -91 
Q 1894 -91 1617 61 
Q 1341 213 1159 525 
z
M 3116 1747 
Q 3116 2381 2855 2742 
Q 2594 3103 2138 3103 
Q 1681 3103 1420 2742 
Q 1159 2381 1159 1747 
Q 1159 1113 1420 752 
Q 1681 391 2138 391 
Q 2594 391 2855 752 
Q 3116 1113 3116 1747 
z
" transform="scale(0.015625)"/>
       <path id="DejaVuSans-69" d="M 603 3500 
L 1178 3500 
L 1178 0 
L 603 0 
L 603 3500 
z
M 603 4863 
L 1178 4863 
L 1178 4134 
L 603 4134 
L 603 4863 
z
" transform="scale(0.015625)"/>
       <path id="DejaVuSans-74" d="M 1172 4494 
L 1172 3500 
L 2356 3500 
L 2356 3053 
L 1172 3053 
L 1172 1153 
Q 1172 725 1289 603 
Q 1406 481 1766 481 
L 2356 481 
L 2356 0 
L 1766 0 
Q 1100 0 847 248 
Q 594 497 594 1153 
L 594 3053 
L 172 3053 
L 172 3500 
L 594 3500 
L 594 4494 
L 1172 4494 
z
" transform="scale(0.015625)"/>
       <path id="DejaVuSans-73" d="M 2834 3397 
L 2834 2853 
Q 2591 2978 2328 3040 
Q 2066 3103 1784 3103 
Q 1356 3103 1142 2972 
Q 928 2841 928 2578 
Q 928 2378 1081 2264 
Q 1234 2150 1697 2047 
L 1894 2003 
Q 2506 1872 2764 1633 
Q 3022 1394 3022 966 
Q 3022 478 2636 193 
Q 2250 -91 1575 -91 
Q 1294 -91 989 -36 
Q 684 19 347 128 
L 347 722 
Q 666 556 975 473 
Q 1284 391 1588 391 
Q 1994 391 2212 530 
Q 2431 669 2431 922 
Q 2431 1156 2273 1281 
Q 2116 1406 1581 1522 
L 1381 1569 
Q 847 1681 609 1914 
Q 372 2147 372 2553 
Q 372 3047 722 3315 
Q 1072 3584 1716 3584 
Q 2034 3584 2315 3537 
Q 2597 3491 2834 3397 
z
" transform="scale(0.015625)"/>
      </defs>
      <use xlink:href="#DejaVuSans-52"/>
      <use xlink:href="#DejaVuSans-61" x="67.232422"/>
      <use xlink:href="#DejaVuSans-6e" x="128.511719"/>
      <use xlink:href="#DejaVuSans-64" x="191.890625"/>
      <use xlink:href="#DejaVuSans-6f" x="255.367188"/>
      <use xlink:href="#DejaVuSans-6d" x="316.548828"/>
      <use xlink:href="#DejaVuSans-20" x="413.960938"/>
      <use xlink:href="#DejaVuSans-70" x="445.748047"/>
      <use xlink:href="#DejaVuSans-6f" x="509.224609"/>
      <use xlink:href="#DejaVuSans-69" x="570.40625"/>
      <use xlink:href="#DejaVuSans-6e" x="598.189453"/>
      <use xlink:href="#DejaVuSans-74" x="661.568359"/>
      <use xlink:href="#DejaVuSans-73" x="700.777344"/>
     </g>
    </g>
   </g>
  </g>
 </g>
 <defs>
  <clipPath id="p37c1b54670">
   <rect x="65.60649" y="3.00024" width="392.19327" height="294.726082"/>
  </clipPath>
 </defs>
</svg>
