<?xml version="1.0" encoding="utf-8" standalone="no"?>
<!DOCTYPE svg PUBLIC "-//W3C//DTD SVG 1.1//EN"
  "http://www.w3.org/Graphics/SVG/1.1/DTD/svg11.dtd">
<svg xmlns:xlink="http://www.w3.org/1999/xlink" width="460.8pt" height="345.6pt" viewBox="0 0 460.8 345.6" xmlns="http://www.w3.org/2000/svg" version="1.1">
 <metadata>
  <rdf:RDF xmlns:dc="http://purl.org/dc/elements/1.1/" xmlns:cc="http://creativecommons.org/ns#" xmlns:rdf="http://www.w3.org/1999/02/22-rdf-syntax-ns#">
   <cc:Work>
    <dc:type rdf:resource="http://purl.org/dc/dcmitype/StillImage"/>
    <dc:date>2025-09-28T17:01:44.968023</dc:date>
    <dc:format>image/svg+xml</dc:format>
    <dc:creator>
     <cc:Agent>
      <dc:title>Matplotlib v3.6.3, https://matplotlib.org/</dc:title>
     </cc:Agent>
    </dc:creator>
   </cc:Work>
  </rdf:RDF>
 </metadata>
 <defs>
  <style type="text/css">*{stroke-linejoin: round; stroke-linecap: butt}</style>
 </defs>
 <g id="figure_1">
  <g id="patch_1">
   <path d="M 0 345.6 
L 460.8 345.6 
L 460.8 0 
L 0 0 
z
" style="fill: #ffffff"/>
  </g>
  <g id="axes_1">
   <g id="patch_2">
    <path d="M 65.60649 297.726322 
L 457.79976 297.726322 
L 457.79976 3.00024 
L 65.60649 3.00024 
z
" style="fill: #ffffff"/>
   </g>
   <g id="PolyCollection_1">
    <defs>
     <path id="m283d0c636d" d="M 83.433457 -61.270318 
L 83.433457 -269.368263 
L 90.70977 -271.913823 
L 97.986083 -274.676694 
L 105.262396 -277.626553 
L 112.538709 -280.733077 
L 119.815022 -283.965944 
L 127.091335 -287.294832 
L 134.367648 -290.689418 
L 141.643961 -294.119381 
L 148.920274 -297.554397 
L 156.196587 -300.964144 
L 163.4729 -304.318301 
L 170.749213 -307.586544 
L 178.025526 -310.738551 
L 185.301839 -313.744001 
L 192.578152 -316.57257 
L 199.854465 -319.193937 
L 207.130778 -321.577778 
L 214.407091 -323.693773 
L 221.683404 -325.511597 
L 228.959717 -327.000929 
L 236.23603 -328.131447 
L 243.512343 -328.872829 
L 250.788656 -329.194751 
L 258.064969 -329.066892 
L 265.341281 -328.458929 
L 272.617594 -327.34054 
L 279.893907 -325.681402 
L 287.17022 -323.451194 
L 294.446533 -320.619592 
L 301.722846 -317.156275 
L 308.999159 -313.030921 
L 316.275472 -308.213206 
L 323.551785 -302.672808 
L 330.828098 -296.379406 
L 338.104411 -289.302676 
L 345.380724 -281.412297 
L 352.657037 -272.677946 
L 359.93335 -263.069301 
L 367.209663 -252.556039 
L 374.485976 -241.107839 
L 381.762289 -228.694377 
L 389.038602 -215.285331 
L 396.314915 -200.85038 
L 403.591228 -185.3592 
L 410.867541 -168.78147 
L 418.143854 -151.086867 
L 425.420167 -132.245068 
L 432.69648 -112.225752 
L 439.972793 -90.998595 
L 439.972793 -61.270318 
L 439.972793 -61.270318 
L 432.69648 -61.270318 
L 425.420167 -61.270318 
L 418.143854 -61.270318 
L 410.867541 -61.270318 
L 403.591228 -61.270318 
L 396.314915 -61.270318 
L 389.038602 -61.270318 
L 381.762289 -61.270318 
L 374.485976 -61.270318 
L 367.209663 -61.270318 
L 359.93335 -61.270318 
L 352.657037 -61.270318 
L 345.380724 -61.270318 
L 338.104411 -61.270318 
L 330.828098 -61.270318 
L 323.551785 -61.270318 
L 316.275472 -61.270318 
L 308.999159 -61.270318 
L 301.722846 -61.270318 
L 294.446533 -61.270318 
L 287.17022 -61.270318 
L 279.893907 -61.270318 
L 272.617594 -61.270318 
L 265.341281 -61.270318 
L 258.064969 -61.270318 
L 250.788656 -61.270318 
L 243.512343 -61.270318 
L 236.23603 -61.270318 
L 228.959717 -61.270318 
L 221.683404 -61.270318 
L 214.407091 -61.270318 
L 207.130778 -61.270318 
L 199.854465 -61.270318 
L 192.578152 -61.270318 
L 185.301839 -61.270318 
L 178.025526 -61.270318 
L 170.749213 -61.270318 
L 163.4729 -61.270318 
L 156.196587 -61.270318 
L 148.920274 -61.270318 
L 141.643961 -61.270318 
L 134.367648 -61.270318 
L 127.091335 -61.270318 
L 119.815022 -61.270318 
L 112.538709 -61.270318 
L 105.262396 -61.270318 
L 97.986083 -61.270318 
L 90.70977 -61.270318 
L 83.433457 -61.270318 
z
" style="stroke: #008000; stroke-opacity: 0.5"/>
    </defs>
    <g clip-path="url(#p21d9a84d0a)">
     <use xlink:href="#m283d0c636d" x="0" y="345.6" style="fill: #008000; fill-opacity: 0.5; stroke: #008000; stroke-opacity: 0.5"/>
    </g>
   </g>
   <g id="matplotlib.axis_1">
    <g id="xtick_1">
     <g id="line2d_1">
      <path d="M 83.433457 297.726322 
L 83.433457 3.00024 
" clip-path="url(#p21d9a84d0a)" style="fill: none; stroke: #b0b0b0; stroke-width: 0.8; stroke-linecap: square"/>
     </g>
     <g id="line2d_2">
      <defs>
       <path id="maf7beb16da" d="M 0 0 
L 0 3.5 
" style="stroke: #000000; stroke-width: 0.8"/>
      </defs>
      <g>
       <use xlink:href="#maf7beb16da" x="83.433457" y="297.726322" style="stroke: #000000; stroke-width: 0.8"/>
      </g>
     </g>
     <g id="text_1">
      <!-- 0 -->
      <g transform="translate(78.661582 316.123979) scale(0.15 -0.15)">
       <defs>
        <path id="DejaVuSans-30" d="M 2034 4250 
Q 1547 4250 1301 3770 
Q 1056 3291 1056 2328 
Q 1056 1369 1301 889 
Q 1547 409 2034 409 
Q 2525 409 2770 889 
Q 3016 1369 3016 2328 
Q 3016 3291 2770 3770 
Q 2525 4250 2034 4250 
z
M 2034 4750 
Q 2819 4750 3233 4129 
Q 3647 3509 3647 2328 
Q 3647 1150 3233 529 
Q 2819 -91 2034 -91 
Q 1250 -91 836 529 
Q 422 1150 422 2328 
Q 422 3509 836 4129 
Q 1250 4750 2034 4750 
z
" transform="scale(0.015625)"/>
       </defs>
       <use xlink:href="#DejaVuSans-30"/>
      </g>
     </g>
    </g>
    <g id="xtick_2">
     <g id="line2d_3">
      <path d="M 83.433457 297.726322 
L 83.433457 3.00024 
" clip-path="url(#p21d9a84d0a)" style="fill: none; stroke: #b0b0b0; stroke-width: 0.8; stroke-linecap: square"/>
     </g>
     <g id="line2d_4">
      <g>
       <use xlink:href="#maf7beb16da" x="83.433457" y="297.726322" style="stroke: #000000; stroke-width: 0.8"/>
      </g>
     </g>
     <g id="text_2">
      <!-- 0 -->
      <g transform="translate(78.661582 316.123979) scale(0.15 -0.15)">
       <use xlink:href="#DejaVuSans-30"/>
      </g>
     </g>
    </g>
    <g id="xtick_3">
     <g id="line2d_5">
      <path d="M 439.972793 297.726322 
L 439.972793 3.00024 
" clip-path="url(#p21d9a84d0a)" style="fill: none; stroke: #b0b0b0; stroke-width: 0.8; stroke-linecap: square"/>
     </g>
     <g id="line2d_6">
      <g>
       <use xlink:href="#maf7beb16da" x="439.972793" y="297.726322" style="stroke: #000000; stroke-width: 0.8"/>
      </g>
     </g>
     <g id="text_3">
      <!-- $b$ -->
      <g transform="translate(435.172793 316.123979) scale(0.15 -0.15)">
       <defs>
        <path id="DejaVuSans-Oblique-62" d="M 3169 2138 
Q 3169 2591 2961 2847 
Q 2753 3103 2388 3103 
Q 2122 3103 1889 2973 
Q 1656 2844 1484 2597 
Q 1303 2338 1198 1995 
Q 1094 1653 1094 1313 
Q 1094 881 1298 636 
Q 1503 391 1863 391 
Q 2134 391 2365 517 
Q 2597 644 2772 891 
Q 2950 1147 3059 1487 
Q 3169 1828 3169 2138 
z
M 1381 2969 
Q 1594 3256 1914 3420 
Q 2234 3584 2584 3584 
Q 3122 3584 3439 3221 
Q 3756 2859 3756 2241 
Q 3756 1734 3570 1259 
Q 3384 784 3041 416 
Q 2816 172 2522 40 
Q 2228 -91 1906 -91 
Q 1566 -91 1316 65 
Q 1066 222 909 531 
L 806 0 
L 231 0 
L 1178 4863 
L 1753 4863 
L 1381 2969 
z
" transform="scale(0.015625)"/>
       </defs>
       <use xlink:href="#DejaVuSans-Oblique-62" transform="translate(0 0.015625)"/>
      </g>
     </g>
    </g>
    <g id="text_4">
     <!-- $x$ -->
     <g transform="translate(255.703125 338.440385) scale(0.2 -0.2)">
      <defs>
       <path id="DejaVuSans-Oblique-78" d="M 3841 3500 
L 2234 1784 
L 3219 0 
L 2559 0 
L 1819 1388 
L 531 0 
L -166 0 
L 1556 1844 
L 641 3500 
L 1300 3500 
L 1972 2234 
L 3144 3500 
L 3841 3500 
z
" transform="scale(0.015625)"/>
      </defs>
      <use xlink:href="#DejaVuSans-Oblique-78" transform="translate(0 0.3125)"/>
     </g>
    </g>
   </g>
   <g id="matplotlib.axis_2">
    <g id="ytick_1">
     <g id="line2d_7">
      <path d="M 65.60649 284.329682 
L 457.79976 284.329682 
" clip-path="url(#p21d9a84d0a)" style="fill: none; stroke: #b0b0b0; stroke-width: 0.8; stroke-linecap: square"/>
     </g>
     <g id="line2d_8">
      <defs>
       <path id="mde75d17253" d="M 0 0 
L -3.5 0 
" style="stroke: #000000; stroke-width: 0.8"/>
      </defs>
      <g>
       <use xlink:href="#mde75d17253" x="65.60649" y="284.329682" style="stroke: #000000; stroke-width: 0.8"/>
      </g>
     </g>
     <g id="text_5">
      <!-- $y_{min}$ -->
      <g transform="translate(29.50649 290.013276) scale(0.15 -0.15)">
       <defs>
        <path id="DejaVuSans-Oblique-79" d="M 1588 -325 
Q 1188 -997 936 -1164 
Q 684 -1331 294 -1331 
L -159 -1331 
L -63 -850 
L 269 -850 
Q 509 -850 678 -719 
Q 847 -588 1056 -206 
L 1234 128 
L 459 3500 
L 1069 3500 
L 1650 819 
L 3256 3500 
L 3859 3500 
L 1588 -325 
z
" transform="scale(0.015625)"/>
        <path id="DejaVuSans-Oblique-6d" d="M 5747 2113 
L 5338 0 
L 4763 0 
L 5166 2094 
Q 5191 2228 5203 2325 
Q 5216 2422 5216 2491 
Q 5216 2772 5059 2928 
Q 4903 3084 4622 3084 
Q 4203 3084 3875 2770 
Q 3547 2456 3450 1953 
L 3066 0 
L 2491 0 
L 2900 2094 
Q 2925 2209 2937 2307 
Q 2950 2406 2950 2484 
Q 2950 2769 2794 2926 
Q 2638 3084 2363 3084 
Q 1938 3084 1609 2770 
Q 1281 2456 1184 1953 
L 800 0 
L 225 0 
L 909 3500 
L 1484 3500 
L 1375 2956 
Q 1609 3263 1923 3423 
Q 2238 3584 2597 3584 
Q 2978 3584 3223 3384 
Q 3469 3184 3519 2828 
Q 3781 3197 4126 3390 
Q 4472 3584 4856 3584 
Q 5306 3584 5551 3325 
Q 5797 3066 5797 2591 
Q 5797 2488 5784 2364 
Q 5772 2241 5747 2113 
z
" transform="scale(0.015625)"/>
        <path id="DejaVuSans-Oblique-69" d="M 1172 4863 
L 1747 4863 
L 1606 4134 
L 1031 4134 
L 1172 4863 
z
M 909 3500 
L 1484 3500 
L 800 0 
L 225 0 
L 909 3500 
z
" transform="scale(0.015625)"/>
        <path id="DejaVuSans-Oblique-6e" d="M 3566 2113 
L 3156 0 
L 2578 0 
L 2988 2091 
Q 3016 2238 3031 2350 
Q 3047 2463 3047 2528 
Q 3047 2791 2881 2937 
Q 2716 3084 2419 3084 
Q 1956 3084 1622 2776 
Q 1288 2469 1184 1941 
L 800 0 
L 225 0 
L 903 3500 
L 1478 3500 
L 1363 2950 
Q 1603 3253 1940 3418 
Q 2278 3584 2650 3584 
Q 3113 3584 3367 3334 
Q 3622 3084 3622 2631 
Q 3622 2519 3608 2391 
Q 3594 2263 3566 2113 
z
" transform="scale(0.015625)"/>
       </defs>
       <use xlink:href="#DejaVuSans-Oblique-79" transform="translate(0 0.3125)"/>
       <use xlink:href="#DejaVuSans-Oblique-6d" transform="translate(59.179688 -16.09375) scale(0.7)"/>
       <use xlink:href="#DejaVuSans-Oblique-69" transform="translate(127.368164 -16.09375) scale(0.7)"/>
       <use xlink:href="#DejaVuSans-Oblique-6e" transform="translate(146.816406 -16.09375) scale(0.7)"/>
      </g>
     </g>
    </g>
    <g id="ytick_2">
     <g id="line2d_9">
      <path d="M 65.60649 76.231737 
L 457.79976 76.231737 
" clip-path="url(#p21d9a84d0a)" style="fill: none; stroke: #b0b0b0; stroke-width: 0.8; stroke-linecap: square"/>
     </g>
     <g id="line2d_10">
      <g>
       <use xlink:href="#mde75d17253" x="65.60649" y="76.231737" style="stroke: #000000; stroke-width: 0.8"/>
      </g>
     </g>
     <g id="text_6">
      <!-- 0 -->
      <g transform="translate(49.06274 81.930566) scale(0.15 -0.15)">
       <use xlink:href="#DejaVuSans-30"/>
      </g>
     </g>
    </g>
    <g id="ytick_3">
     <g id="line2d_11">
      <path d="M 65.60649 16.405249 
L 457.79976 16.405249 
" clip-path="url(#p21d9a84d0a)" style="fill: none; stroke: #b0b0b0; stroke-width: 0.8; stroke-linecap: square"/>
     </g>
     <g id="line2d_12">
      <g>
       <use xlink:href="#mde75d17253" x="65.60649" y="16.405249" style="stroke: #000000; stroke-width: 0.8"/>
      </g>
     </g>
     <g id="text_7">
      <!-- $y_{max}$ -->
      <g transform="translate(26.35649 22.088843) scale(0.15 -0.15)">
       <defs>
        <path id="DejaVuSans-Oblique-61" d="M 3438 1997 
L 3047 0 
L 2472 0 
L 2578 531 
Q 2325 219 2001 64 
Q 1678 -91 1281 -91 
Q 834 -91 548 182 
Q 263 456 263 884 
Q 263 1497 752 1853 
Q 1241 2209 2100 2209 
L 2900 2209 
L 2931 2363 
Q 2938 2388 2941 2417 
Q 2944 2447 2944 2509 
Q 2944 2788 2717 2942 
Q 2491 3097 2081 3097 
Q 1800 3097 1504 3025 
Q 1209 2953 897 2809 
L 997 3341 
Q 1322 3463 1633 3523 
Q 1944 3584 2234 3584 
Q 2853 3584 3176 3315 
Q 3500 3047 3500 2534 
Q 3500 2431 3484 2292 
Q 3469 2153 3438 1997 
z
M 2816 1759 
L 2241 1759 
Q 1534 1759 1195 1570 
Q 856 1381 856 984 
Q 856 709 1029 553 
Q 1203 397 1509 397 
Q 1978 397 2328 733 
Q 2678 1069 2791 1631 
L 2816 1759 
z
" transform="scale(0.015625)"/>
       </defs>
       <use xlink:href="#DejaVuSans-Oblique-79" transform="translate(0 0.3125)"/>
       <use xlink:href="#DejaVuSans-Oblique-6d" transform="translate(59.179688 -16.09375) scale(0.7)"/>
       <use xlink:href="#DejaVuSans-Oblique-61" transform="translate(127.368164 -16.09375) scale(0.7)"/>
       <use xlink:href="#DejaVuSans-Oblique-78" transform="translate(170.263672 -16.09375) scale(0.7)"/>
      </g>
     </g>
    </g>
    <g id="text_8">
     <!-- $y$ -->
     <g transform="translate(18.15649 156.363281) rotate(-90) scale(0.2 -0.2)">
      <use xlink:href="#DejaVuSans-Oblique-79" transform="translate(0 0.3125)"/>
     </g>
    </g>
   </g>
   <g id="LineCollection_1">
    <path d="M 83.433457 64.505495 
L 439.972793 64.505495 
" clip-path="url(#p21d9a84d0a)" style="fill: none; stroke-dasharray: 18.5,8; stroke-dashoffset: 0; stroke: #ff0000; stroke-width: 5"/>
   </g>
   <g id="line2d_13">
    <path d="M 83.433457 76.231737 
L 90.70977 73.686177 
L 97.986083 70.923306 
L 105.262396 67.973447 
L 112.538709 64.866923 
L 119.815022 61.634056 
L 127.091335 58.305168 
L 134.367648 54.910582 
L 141.643961 51.480619 
L 148.920274 48.045603 
L 156.196587 44.635856 
L 163.4729 41.281699 
L 170.749213 38.013456 
L 178.025526 34.861449 
L 185.301839 31.855999 
L 192.578152 29.02743 
L 199.854465 26.406063 
L 207.130778 24.022222 
L 214.407091 21.906227 
L 221.683404 20.088403 
L 228.959717 18.599071 
L 236.23603 17.468553 
L 243.512343 16.727171 
L 250.788656 16.405249 
L 258.064969 16.533108 
L 265.341281 17.141071 
L 272.617594 18.25946 
L 279.893907 19.918598 
L 287.17022 22.148806 
L 294.446533 24.980408 
L 301.722846 28.443725 
L 308.999159 32.569079 
L 316.275472 37.386794 
L 323.551785 42.927192 
L 330.828098 49.220594 
L 338.104411 56.297324 
L 345.380724 64.187703 
L 352.657037 72.922054 
L 359.93335 82.530699 
L 367.209663 93.043961 
L 374.485976 104.492161 
L 381.762289 116.905623 
L 389.038602 130.314669 
L 396.314915 144.74962 
L 403.591228 160.2408 
L 410.867541 176.81853 
L 418.143854 194.513133 
L 425.420167 213.354932 
L 432.69648 233.374248 
L 439.972793 254.601405 
" clip-path="url(#p21d9a84d0a)" style="fill: none; stroke: #ff0000; stroke-width: 5; stroke-linecap: square"/>
   </g>
   <g id="line2d_14">
    <defs>
     <path id="m42312552a9" d="M -3.5 3.5 
L 3.5 -3.5 
M -3.5 -3.5 
L 3.5 3.5 
" style="stroke: #000000"/>
    </defs>
    <g clip-path="url(#p21d9a84d0a)">
     <use xlink:href="#m42312552a9" x="94.480548" y="72.279596" style="stroke: #000000"/>
     <use xlink:href="#m42312552a9" x="411.967823" y="179.421784" style="stroke: #000000"/>
     <use xlink:href="#m42312552a9" x="142.317039" y="51.16262" style="stroke: #000000"/>
     <use xlink:href="#m42312552a9" x="130.209466" y="56.856757" style="stroke: #000000"/>
     <use xlink:href="#m42312552a9" x="386.900758" y="126.269901" style="stroke: #000000"/>
     <use xlink:href="#m42312552a9" x="92.306173" y="73.097563" style="stroke: #000000"/>
     <use xlink:href="#m42312552a9" x="214.801553" y="21.799763" style="stroke: #000000"/>
     <use xlink:href="#m42312552a9" x="411.52658" y="178.374734" style="stroke: #000000"/>
     <use xlink:href="#m42312552a9" x="253.282293" y="16.39688" style="stroke: #000000"/>
     <use xlink:href="#m42312552a9" x="127.795122" y="57.979219" style="stroke: #000000"/>
     <use xlink:href="#m42312552a9" x="150.092598" y="47.493741" style="stroke: #000000"/>
     <use xlink:href="#m42312552a9" x="104.941149" y="68.107211" style="stroke: #000000"/>
     <use xlink:href="#m42312552a9" x="123.775588" y="59.832083" style="stroke: #000000"/>
     <use xlink:href="#m42312552a9" x="392.227166" y="136.512161" style="stroke: #000000"/>
     <use xlink:href="#m42312552a9" x="232.978082" y="17.928437" style="stroke: #000000"/>
     <use xlink:href="#m42312552a9" x="237.565463" y="17.303151" style="stroke: #000000"/>
     <use xlink:href="#m42312552a9" x="345.897363" y="64.779674" style="stroke: #000000"/>
     <use xlink:href="#m42312552a9" x="107.277394" y="67.127564" style="stroke: #000000"/>
     <use xlink:href="#m42312552a9" x="391.195641" y="134.485511" style="stroke: #000000"/>
     <use xlink:href="#m42312552a9" x="127.953726" y="57.905682" style="stroke: #000000"/>
     <use xlink:href="#m42312552a9" x="406.662182" y="167.103128" style="stroke: #000000"/>
     <use xlink:href="#m42312552a9" x="133.078548" y="55.515426" style="stroke: #000000"/>
     <use xlink:href="#m42312552a9" x="284.907431" y="21.392244" style="stroke: #000000"/>
     <use xlink:href="#m42312552a9" x="314.057531" y="35.843103" style="stroke: #000000"/>
     <use xlink:href="#m42312552a9" x="166.805172" y="39.772477" style="stroke: #000000"/>
     <use xlink:href="#m42312552a9" x="392.090629" y="136.242708" style="stroke: #000000"/>
     <use xlink:href="#m42312552a9" x="122.337832" y="60.489212" style="stroke: #000000"/>
     <use xlink:href="#m42312552a9" x="288.026178" y="22.450107" style="stroke: #000000"/>
     <use xlink:href="#m42312552a9" x="299.795186" y="27.462996" style="stroke: #000000"/>
     <use xlink:href="#m42312552a9" x="411.247484" y="177.714577" style="stroke: #000000"/>
     <use xlink:href="#m42312552a9" x="105.859967" y="67.723815" style="stroke: #000000"/>
     <use xlink:href="#m42312552a9" x="406.580892" y="166.918966" style="stroke: #000000"/>
     <use xlink:href="#m42312552a9" x="253.38272" y="16.397667" style="stroke: #000000"/>
     <use xlink:href="#m42312552a9" x="253.937888" y="16.403602" style="stroke: #000000"/>
     <use xlink:href="#m42312552a9" x="229.284734" y="18.540692" style="stroke: #000000"/>
     <use xlink:href="#m42312552a9" x="328.450222" y="47.079239" style="stroke: #000000"/>
     <use xlink:href="#m42312552a9" x="297.733191" y="26.464719" style="stroke: #000000"/>
     <use xlink:href="#m42312552a9" x="217.505614" y="21.093918" style="stroke: #000000"/>
     <use xlink:href="#m42312552a9" x="284.125558" y="21.14418" style="stroke: #000000"/>
     <use xlink:href="#m42312552a9" x="240.229589" y="17.011534" style="stroke: #000000"/>
     <use xlink:href="#m42312552a9" x="182.269716" y="33.088648" style="stroke: #000000"/>
     <use xlink:href="#m42312552a9" x="132.833702" y="55.630168" style="stroke: #000000"/>
     <use xlink:href="#m42312552a9" x="144.809752" y="49.984945" style="stroke: #000000"/>
     <use xlink:href="#m42312552a9" x="352.581447" y="72.826875" style="stroke: #000000"/>
     <use xlink:href="#m42312552a9" x="292.28875" y="24.076176" style="stroke: #000000"/>
     <use xlink:href="#m42312552a9" x="125.824497" y="58.890319" style="stroke: #000000"/>
     <use xlink:href="#m42312552a9" x="231.051474" y="18.235994" style="stroke: #000000"/>
     <use xlink:href="#m42312552a9" x="418.638315" y="195.756854" style="stroke: #000000"/>
     <use xlink:href="#m42312552a9" x="194.897107" y="28.16806" style="stroke: #000000"/>
     <use xlink:href="#m42312552a9" x="218.933734" y="20.738371" style="stroke: #000000"/>
    </g>
   </g>
   <g id="patch_3">
    <path d="M 65.60649 297.726322 
L 65.60649 3.00024 
" style="fill: none; stroke: #000000; stroke-width: 0.8; stroke-linejoin: miter; stroke-linecap: square"/>
   </g>
   <g id="patch_4">
    <path d="M 457.79976 297.726322 
L 457.79976 3.00024 
" style="fill: none; stroke: #000000; stroke-width: 0.8; stroke-linejoin: miter; stroke-linecap: square"/>
   </g>
   <g id="patch_5">
    <path d="M 65.60649 297.726322 
L 457.79976 297.726322 
" style="fill: none; stroke: #000000; stroke-width: 0.8; stroke-linejoin: miter; stroke-linecap: square"/>
   </g>
   <g id="patch_6">
    <path d="M 65.60649 3.00024 
L 457.79976 3.00024 
" style="fill: none; stroke: #000000; stroke-width: 0.8; stroke-linejoin: miter; stroke-linecap: square"/>
   </g>
   <g id="legend_1">
    <g id="patch_7">
     <path d="M 76.10649 290.226322 
L 237.03774 290.226322 
Q 240.03774 290.226322 240.03774 287.226322 
L 240.03774 222.67476 
Q 240.03774 219.67476 237.03774 219.67476 
L 76.10649 219.67476 
Q 73.10649 219.67476 73.10649 222.67476 
L 73.10649 287.226322 
Q 73.10649 290.226322 76.10649 290.226322 
z
" style="fill: #ffffff; stroke: #cccccc; stroke-linejoin: miter"/>
    </g>
    <g id="line2d_15">
     <path d="M 79.10649 231.822416 
L 109.10649 231.822416 
" style="fill: none; stroke-dasharray: 18.5,8; stroke-dashoffset: 0; stroke: #ff0000; stroke-width: 5"/>
    </g>
    <g id="text_9">
     <!-- $\left&lt;f\right&gt;$ -->
     <g transform="translate(121.10649 237.072416) scale(0.15 -0.15)">
      <defs>
       <path id="DejaVuSans-27e8" d="M 572 2006 
L 1453 4856 
L 1984 4856 
L 1103 2006 
L 1984 -844 
L 1453 -844 
L 572 2006 
z
" transform="scale(0.015625)"/>
       <path id="DejaVuSans-Oblique-66" d="M 3059 4863 
L 2969 4384 
L 2419 4384 
Q 2106 4384 1964 4261 
Q 1822 4138 1753 3809 
L 1691 3500 
L 2638 3500 
L 2553 3053 
L 1606 3053 
L 1013 0 
L 434 0 
L 1031 3053 
L 481 3053 
L 563 3500 
L 1113 3500 
L 1159 3744 
Q 1278 4363 1576 4613 
Q 1875 4863 2516 4863 
L 3059 4863 
z
" transform="scale(0.015625)"/>
       <path id="DejaVuSans-27e9" d="M 1925 2006 
L 1044 -844 
L 513 -844 
L 1394 2006 
L 513 4856 
L 1044 4856 
L 1925 2006 
z
" transform="scale(0.015625)"/>
      </defs>
      <use xlink:href="#DejaVuSans-27e8" transform="translate(0 0.015625)"/>
      <use xlink:href="#DejaVuSans-Oblique-66" transform="translate(39.013672 0.015625)"/>
      <use xlink:href="#DejaVuSans-27e9" transform="translate(74.21875 0.015625)"/>
     </g>
    </g>
    <g id="line2d_16">
     <path d="M 79.10649 253.839604 
L 94.10649 253.839604 
L 109.10649 253.839604 
" style="fill: none; stroke: #ff0000; stroke-width: 5; stroke-linecap: square"/>
    </g>
    <g id="text_10">
     <!-- $f(x)$ -->
     <g transform="translate(121.10649 259.089604) scale(0.15 -0.15)">
      <defs>
       <path id="DejaVuSans-28" d="M 1984 4856 
Q 1566 4138 1362 3434 
Q 1159 2731 1159 2009 
Q 1159 1288 1364 580 
Q 1569 -128 1984 -844 
L 1484 -844 
Q 1016 -109 783 600 
Q 550 1309 550 2009 
Q 550 2706 781 3412 
Q 1013 4119 1484 4856 
L 1984 4856 
z
" transform="scale(0.015625)"/>
       <path id="DejaVuSans-29" d="M 513 4856 
L 1013 4856 
Q 1481 4119 1714 3412 
Q 1947 2706 1947 2009 
Q 1947 1309 1714 600 
Q 1481 -109 1013 -844 
L 513 -844 
Q 928 -128 1133 580 
Q 1338 1288 1338 2009 
Q 1338 2731 1133 3434 
Q 928 4138 513 4856 
z
" transform="scale(0.015625)"/>
      </defs>
      <use xlink:href="#DejaVuSans-Oblique-66" transform="translate(0 0.015625)"/>
      <use xlink:href="#DejaVuSans-28" transform="translate(35.205078 0.015625)"/>
      <use xlink:href="#DejaVuSans-Oblique-78" transform="translate(74.21875 0.015625)"/>
      <use xlink:href="#DejaVuSans-29" transform="translate(133.398438 0.015625)"/>
     </g>
    </g>
    <g id="line2d_17">
     <g>
      <use xlink:href="#m42312552a9" x="94.10649" y="275.856791" style="stroke: #000000"/>
     </g>
    </g>
    <g id="text_11">
     <!-- Random points -->
     <g transform="translate(121.10649 281.106791) scale(0.15 -0.15)">
      <defs>
       <path id="DejaVuSans-52" d="M 2841 2188 
Q 3044 2119 3236 1894 
Q 3428 1669 3622 1275 
L 4263 0 
L 3584 0 
L 2988 1197 
Q 2756 1666 2539 1819 
Q 2322 1972 1947 1972 
L 1259 1972 
L 1259 0 
L 628 0 
L 628 4666 
L 2053 4666 
Q 2853 4666 3247 4331 
Q 3641 3997 3641 3322 
Q 3641 2881 3436 2590 
Q 3231 2300 2841 2188 
z
M 1259 4147 
L 1259 2491 
L 2053 2491 
Q 2509 2491 2742 2702 
Q 2975 2913 2975 3322 
Q 2975 3731 2742 3939 
Q 2509 4147 2053 4147 
L 1259 4147 
z
" transform="scale(0.015625)"/>
       <path id="DejaVuSans-61" d="M 2194 1759 
Q 1497 1759 1228 1600 
Q 959 1441 959 1056 
Q 959 750 1161 570 
Q 1363 391 1709 391 
Q 2188 391 2477 730 
Q 2766 1069 2766 1631 
L 2766 1759 
L 2194 1759 
z
M 3341 1997 
L 3341 0 
L 2766 0 
L 2766 531 
Q 2569 213 2275 61 
Q 1981 -91 1556 -91 
Q 1019 -91 701 211 
Q 384 513 384 1019 
Q 384 1609 779 1909 
Q 1175 2209 1959 2209 
L 2766 2209 
L 2766 2266 
Q 2766 2663 2505 2880 
Q 2244 3097 1772 3097 
Q 1472 3097 1187 3025 
Q 903 2953 641 2809 
L 641 3341 
Q 956 3463 1253 3523 
Q 1550 3584 1831 3584 
Q 2591 3584 2966 3190 
Q 3341 2797 3341 1997 
z
" transform="scale(0.015625)"/>
       <path id="DejaVuSans-6e" d="M 3513 2113 
L 3513 0 
L 2938 0 
L 2938 2094 
Q 2938 2591 2744 2837 
Q 2550 3084 2163 3084 
Q 1697 3084 1428 2787 
Q 1159 2491 1159 1978 
L 1159 0 
L 581 0 
L 581 3500 
L 1159 3500 
L 1159 2956 
Q 1366 3272 1645 3428 
Q 1925 3584 2291 3584 
Q 2894 3584 3203 3211 
Q 3513 2838 3513 2113 
z
" transform="scale(0.015625)"/>
       <path id="DejaVuSans-64" d="M 2906 2969 
L 2906 4863 
L 3481 4863 
L 3481 0 
L 2906 0 
L 2906 525 
Q 2725 213 2448 61 
Q 2172 -91 1784 -91 
Q 1150 -91 751 415 
Q 353 922 353 1747 
Q 353 2572 751 3078 
Q 1150 3584 1784 3584 
Q 2172 3584 2448 3432 
Q 2725 3281 2906 2969 
z
M 947 1747 
Q 947 1113 1208 752 
Q 1469 391 1925 391 
Q 2381 391 2643 752 
Q 2906 1113 2906 1747 
Q 2906 2381 2643 2742 
Q 2381 3103 1925 3103 
Q 1469 3103 1208 2742 
Q 947 2381 947 1747 
z
" transform="scale(0.015625)"/>
       <path id="DejaVuSans-6f" d="M 1959 3097 
Q 1497 3097 1228 2736 
Q 959 2375 959 1747 
Q 959 1119 1226 758 
Q 1494 397 1959 397 
Q 2419 397 2687 759 
Q 2956 1122 2956 1747 
Q 2956 2369 2687 2733 
Q 2419 3097 1959 3097 
z
M 1959 3584 
Q 2709 3584 3137 3096 
Q 3566 2609 3566 1747 
Q 3566 888 3137 398 
Q 2709 -91 1959 -91 
Q 1206 -91 779 398 
Q 353 888 353 1747 
Q 353 2609 779 3096 
Q 1206 3584 1959 3584 
z
" transform="scale(0.015625)"/>
       <path id="DejaVuSans-6d" d="M 3328 2828 
Q 3544 3216 3844 3400 
Q 4144 3584 4550 3584 
Q 5097 3584 5394 3201 
Q 5691 2819 5691 2113 
L 5691 0 
L 5113 0 
L 5113 2094 
Q 5113 2597 4934 2840 
Q 4756 3084 4391 3084 
Q 3944 3084 3684 2787 
Q 3425 2491 3425 1978 
L 3425 0 
L 2847 0 
L 2847 2094 
Q 2847 2600 2669 2842 
Q 2491 3084 2119 3084 
Q 1678 3084 1418 2786 
Q 1159 2488 1159 1978 
L 1159 0 
L 581 0 
L 581 3500 
L 1159 3500 
L 1159 2956 
Q 1356 3278 1631 3431 
Q 1906 3584 2284 3584 
Q 2666 3584 2933 3390 
Q 3200 3197 3328 2828 
z
" transform="scale(0.015625)"/>
       <path id="DejaVuSans-20" transform="scale(0.015625)"/>
       <path id="DejaVuSans-70" d="M 1159 525 
L 1159 -1331 
L 581 -1331 
L 581 3500 
L 1159 3500 
L 1159 2969 
Q 1341 3281 1617 3432 
Q 1894 3584 2278 3584 
Q 2916 3584 3314 3078 
Q 3713 2572 3713 1747 
Q 3713 922 3314 415 
Q 2916 -91 2278 -91 
Q 1894 -91 1617 61 
Q 1341 213 1159 525 
z
M 3116 1747 
Q 3116 2381 2855 2742 
Q 2594 3103 2138 3103 
Q 1681 3103 1420 2742 
Q 1159 2381 1159 1747 
Q 1159 1113 1420 752 
Q 1681 391 2138 391 
Q 2594 391 2855 752 
Q 3116 1113 3116 1747 
z
" transform="scale(0.015625)"/>
       <path id="DejaVuSans-69" d="M 603 3500 
L 1178 3500 
L 1178 0 
L 603 0 
L 603 3500 
z
M 603 4863 
L 1178 4863 
L 1178 4134 
L 603 4134 
L 603 4863 
z
" transform="scale(0.015625)"/>
       <path id="DejaVuSans-74" d="M 1172 4494 
L 1172 3500 
L 2356 3500 
L 2356 3053 
L 1172 3053 
L 1172 1153 
Q 1172 725 1289 603 
Q 1406 481 1766 481 
L 2356 481 
L 2356 0 
L 1766 0 
Q 1100 0 847 248 
Q 594 497 594 1153 
L 594 3053 
L 172 3053 
L 172 3500 
L 594 3500 
L 594 4494 
L 1172 4494 
z
" transform="scale(0.015625)"/>
       <path id="DejaVuSans-73" d="M 2834 3397 
L 2834 2853 
Q 2591 2978 2328 3040 
Q 2066 3103 1784 3103 
Q 1356 3103 1142 2972 
Q 928 2841 928 2578 
Q 928 2378 1081 2264 
Q 1234 2150 1697 2047 
L 1894 2003 
Q 2506 1872 2764 1633 
Q 3022 1394 3022 966 
Q 3022 478 2636 193 
Q 2250 -91 1575 -91 
Q 1294 -91 989 -36 
Q 684 19 347 128 
L 347 722 
Q 666 556 975 473 
Q 1284 391 1588 391 
Q 1994 391 2212 530 
Q 2431 669 2431 922 
Q 2431 1156 2273 1281 
Q 2116 1406 1581 1522 
L 1381 1569 
Q 847 1681 609 1914 
Q 372 2147 372 2553 
Q 372 3047 722 3315 
Q 1072 3584 1716 3584 
Q 2034 3584 2315 3537 
Q 2597 3491 2834 3397 
z
" transform="scale(0.015625)"/>
      </defs>
      <use xlink:href="#DejaVuSans-52"/>
      <use xlink:href="#DejaVuSans-61" x="67.232422"/>
      <use xlink:href="#DejaVuSans-6e" x="128.511719"/>
      <use xlink:href="#DejaVuSans-64" x="191.890625"/>
      <use xlink:href="#DejaVuSans-6f" x="255.367188"/>
      <use xlink:href="#DejaVuSans-6d" x="316.548828"/>
      <use xlink:href="#DejaVuSans-20" x="413.960938"/>
      <use xlink:href="#DejaVuSans-70" x="445.748047"/>
      <use xlink:href="#DejaVuSans-6f" x="509.224609"/>
      <use xlink:href="#DejaVuSans-69" x="570.40625"/>
      <use xlink:href="#DejaVuSans-6e" x="598.189453"/>
      <use xlink:href="#DejaVuSans-74" x="661.568359"/>
      <use xlink:href="#DejaVuSans-73" x="700.777344"/>
     </g>
    </g>
   </g>
  </g>
 </g>
 <defs>
  <clipPath id="p21d9a84d0a">
   <rect x="65.60649" y="3.00024" width="392.19327" height="294.726082"/>
  </clipPath>
 </defs>
</svg>
